<svg width="14" height="14" viewBox="0 0 14 14" fill="none" xmlns="http://www.w3.org/2000/svg">
<g clip-path="url(#clip0_670_992)">
<path d="M9.42744 11.656C9.23671 11.8534 8.91928 11.8534 8.72188 11.656C8.53115 11.4652 8.53115 11.1478 8.72188 10.9575L12.2995 7.37995L0.493935 7.37995C0.218736 7.3795 0 7.16076 0 6.88557C0 6.61037 0.218736 6.38452 0.493935 6.38452L12.2995 6.38452L8.72188 2.81361C8.53115 2.61621 8.53115 2.29833 8.72188 2.10805C8.91928 1.91066 9.23715 1.91066 9.42744 2.10805L13.852 6.53257C14.0493 6.72329 14.0493 7.04073 13.852 7.23101L9.42744 11.656Z" fill="white"/>
</g>
<defs>
<clipPath id="clip0_670_992">
<rect width="14" height="14" fill="white"/>
</clipPath>
</defs>
</svg>
