<svg width="44" height="44" viewBox="0 0 44 44" fill="none" xmlns="http://www.w3.org/2000/svg">
<rect width="44" height="44" rx="11" fill="white" fill-opacity="0.75"/>
<path d="M33.7221 14.9808L34.6426 14.0603C35.1191 13.5838 35.1191 12.8084 34.6426 12.3319L34.0196 11.7088L34.3655 11.363H34.3655C34.8308 10.8976 34.8308 10.1405 34.3655 9.67522L34.3248 9.63449C33.8594 9.16916 33.1025 9.16916 32.6371 9.63449L32.2912 9.98042L31.6682 9.35741C31.1916 8.88086 30.4163 8.88086 29.9397 9.35741L29.0192 10.2779L28.3962 9.65485C28.1653 9.42399 27.8584 9.29688 27.532 9.29688C27.2055 9.29688 26.8986 9.42404 26.6677 9.65485L24.883 11.4395C24.6522 11.6703 24.525 11.9773 24.525 12.3038C24.525 12.6303 24.6522 12.9372 24.883 13.168L26.9933 15.2783L26.0729 16.1987C26.0729 16.1987 26.0728 16.1987 26.0728 16.1988C26.0728 16.1988 26.0728 16.1988 26.0728 16.1988L19.5712 22.7004C19.4224 22.8492 19.4224 23.0903 19.5712 23.239C19.72 23.3878 19.9611 23.3878 20.1098 23.239L26.3421 17.0067L26.9933 17.6579L17.6579 26.9933L17.0067 26.3421L19.0325 24.3163C19.1813 24.1675 19.1813 23.9264 19.0325 23.7777C18.8838 23.6289 18.6427 23.6289 18.4939 23.7777L15.2783 26.9933L13.168 24.883C12.9372 24.6522 12.6302 24.5251 12.3038 24.5251C11.9773 24.5251 11.6704 24.6522 11.4395 24.883L10.5473 25.7752C10.5472 25.7753 10.5472 25.7753 10.5471 25.7753C10.5471 25.7754 10.5471 25.7754 10.547 25.7755L9.65483 26.6677C9.17833 27.1442 9.17833 27.9196 9.65483 28.3961L10.2778 29.0191L9.35739 29.9396C8.88089 30.4161 8.88089 31.1915 9.35739 31.668L9.9804 32.2911L9.63447 32.637C9.16919 33.1023 9.16919 33.8595 9.63447 34.3247L9.67519 34.3655C9.90788 34.5982 10.2135 34.7144 10.5191 34.7144C10.8247 34.7144 11.1302 34.5982 11.3629 34.3655L11.7089 34.0196L12.3319 34.6426C12.5702 34.8809 12.8831 35 13.1962 35C13.5092 35 13.8221 34.8809 14.0604 34.6426L14.9809 33.7221L15.6039 34.3451C15.8348 34.576 16.1417 34.7031 16.4681 34.7031C16.7946 34.7031 17.1016 34.576 17.3324 34.3451L19.1171 32.5605C19.3479 32.3297 19.4751 32.0227 19.4751 31.6962C19.4751 31.3697 19.3479 31.0628 19.1171 30.832L17.0068 28.7217L28.7218 17.0067L30.832 19.117C31.0629 19.3478 31.3698 19.4749 31.6963 19.4749C32.0227 19.4749 32.3297 19.3478 32.5605 19.117L33.4528 18.2248C33.4528 18.2247 33.4529 18.2247 33.4529 18.2247C33.453 18.2246 33.453 18.2246 33.453 18.2245L34.3452 17.3323C34.8217 16.8558 34.8217 16.0804 34.3452 15.6039L33.7221 14.9808ZM33.1757 10.1731C33.344 10.0049 33.6179 10.0049 33.7862 10.1731L33.8269 10.2138C33.9952 10.3821 33.9952 10.656 33.8269 10.8243L33.4809 11.1702L32.8298 10.5191L33.1757 10.1731ZM30.4783 9.89602C30.6578 9.7165 30.9499 9.7165 31.1295 9.89602L34.1039 12.8705C34.2834 13.05 34.2834 13.3421 34.1039 13.5217L33.1835 14.4421L29.5578 10.8164L30.4783 9.89602ZM10.8243 33.8269C10.656 33.9951 10.3821 33.9951 10.2139 33.8269L10.1731 33.7861C10.0048 33.6178 10.0048 33.344 10.1731 33.1757L10.519 32.8298L11.1702 33.4809L10.8243 33.8269ZM13.5217 34.1039C13.3422 34.2834 13.0501 34.2834 12.8705 34.1039L9.8961 31.1294C9.71658 30.9499 9.71658 30.6578 9.8961 30.4783L10.8166 29.5578L14.4422 33.1835L13.5217 34.1039ZM16.7936 33.8065C16.7067 33.8934 16.591 33.9414 16.468 33.9414C16.3451 33.9414 16.2295 33.8935 16.1425 33.8065L15.2504 32.9144C15.2504 32.9143 15.2503 32.9142 15.2502 32.9142L13.168 30.8321L10.1935 27.8576C10.014 27.678 10.014 27.3859 10.1935 27.2064L10.8166 26.5834L17.4166 33.1835L16.7936 33.8065ZM18.5783 32.0218L17.9553 32.6448L11.3552 26.0447L11.9782 25.4217C12.068 25.3319 12.1859 25.2871 12.3037 25.2871C12.4217 25.2871 12.5396 25.332 12.6293 25.4217L18.5783 31.3706C18.7579 31.5501 18.7579 31.8423 18.5783 32.0218ZM15.8169 27.5319L16.468 26.8807L17.1192 27.5319L16.4681 28.1831L15.8169 27.5319ZM27.532 17.1192L26.8808 16.468L27.5319 15.8169L28.1831 16.4681L27.532 17.1192ZM32.0218 18.5783C31.8423 18.7579 31.5502 18.7578 31.3707 18.5783L25.4217 12.6293C25.2422 12.4498 25.2422 12.1577 25.4217 11.9781L26.0447 11.3551L32.6448 17.9553L32.0218 18.5783ZM33.8065 16.7936L33.1835 17.4166L26.5834 10.8165L27.2064 10.1935C27.2934 10.1066 27.409 10.0586 27.532 10.0586C27.655 10.0586 27.7706 10.1065 27.8575 10.1935L28.7497 11.0856C28.7497 11.0857 28.7498 11.0858 28.7499 11.0858L30.832 13.1679L33.8065 16.1424C33.986 16.322 33.986 16.6141 33.8065 16.7936Z" fill="#262C45"/>
</svg>
