<svg width="44" height="44" viewBox="0 0 44 44" fill="none" xmlns="http://www.w3.org/2000/svg">
<rect width="44" height="44" rx="11" fill="white" fill-opacity="0.75"/>
<path d="M34.5938 23.421H32.5631V13.2662C32.5631 13.2633 32.5614 13.2609 32.5614 13.2581V12.0483C32.5614 11.8237 32.3799 11.6421 32.1552 11.6421H11.8452C11.6206 11.6421 11.439 11.8237 11.439 12.0483V13.2662V23.421H9.40622C9.18158 23.421 9 23.6026 9 23.8272V25.4521V27.077V28.7019V30.3268V31.9517C9 32.1763 9.18158 32.3579 9.40622 32.3579H11.8452H13.0614H13.0635H15.5004H28.4996H30.9386H32.1548H32.1568H34.5938C34.8184 32.3579 35 32.1763 35 31.9517V30.3268V28.7019V27.077V25.4521V23.8272C35 23.6026 34.8184 23.421 34.5938 23.421ZM34.1876 26.6708H32.5631V25.8583H34.1876V26.6708ZM34.1876 28.2957H32.5631V27.4832H34.1876V28.2957ZM32.5631 29.1081H34.1876V29.9206H32.5631V29.1081ZM34.1876 24.2334V25.0459H32.5631V24.2334H34.1876ZM12.2514 12.4545H31.749V12.86H30.9386H13.0635H12.2514V12.4545ZM30.5323 26.6708H28.9058V25.8583H30.5323V26.6708ZM28.9058 27.4832H30.5323V28.2957H28.9058V27.4832ZM30.5323 25.0459H28.9058V24.2334H30.5323V25.0459ZM28.9058 29.1081H30.5323V29.9206H28.9058V29.1081ZM30.5323 23.421H28.4996C28.275 23.421 28.0934 23.6026 28.0934 23.8272V25.4521V27.077V28.7019V30.3268V31.5455H15.9066V30.3268V28.7019V27.077V25.4521V23.8272C15.9066 23.6026 15.725 23.421 15.5004 23.421H13.4697V13.6724H18.7494V16.555C17.8236 16.7435 17.1245 17.564 17.1245 18.5447V19.3571C17.1245 19.5818 17.3061 19.7633 17.5307 19.7633H20.7805C21.0052 19.7633 21.1867 19.5818 21.1867 19.3571V18.5447C21.1867 17.564 20.4876 16.7431 19.5618 16.555V13.6724H24.4369V16.555C23.5112 16.7435 22.812 17.564 22.812 18.5447V19.3571C22.812 19.5818 22.9936 19.7633 23.2183 19.7633H26.4681C26.6927 19.7633 26.8743 19.5818 26.8743 19.3571V18.5447C26.8743 17.564 26.1752 16.7431 25.2494 16.555V13.6724H30.5323V23.421ZM15.0942 26.6708H13.4697V25.8583H15.0942V26.6708ZM13.4697 27.4832H15.0942V28.2957H13.4697V27.4832ZM15.0942 25.0459H13.4697V24.2334H15.0942V25.0459ZM13.4697 29.1081H15.0942V29.9206H13.4697V29.1081ZM20.3743 18.9509H17.9369V18.5447C17.9369 17.8728 18.4837 17.326 19.1556 17.326C19.8275 17.326 20.3743 17.8728 20.3743 18.5447V18.9509ZM26.0618 18.9509H23.6245V18.5447C23.6245 17.8728 24.1713 17.326 24.8432 17.326C25.5151 17.326 26.0618 17.8728 26.0618 18.5447V18.9509ZM9.81245 27.4832H11.439V28.2957H9.81245V27.4832ZM11.439 26.6708H9.81245V25.8583H11.439V26.6708ZM9.81245 29.1081H11.439V29.9206H9.81245V29.1081ZM9.81245 24.2334H11.439V25.0459H9.81245V24.2334ZM9.81245 30.733H11.439V31.5455H9.81245V30.733ZM12.2514 30.3268V28.7019V27.077V25.4521V23.8272V13.6724H12.6572V23.8175C12.6572 23.8211 12.6552 23.824 12.6552 23.8272V25.4521V27.077V28.7019V30.3268V31.5455H12.2514V30.3268ZM13.4697 31.5455V30.733H15.0942V31.5455H13.4697ZM28.9058 30.733H30.5323V31.5455H28.9058V30.733ZM31.3448 30.3268V28.7019V27.077V25.4521V23.8272V13.6724H31.7506V23.8175C31.7506 23.8211 31.7486 23.824 31.7486 23.8272V25.4521V27.077V28.7019V30.3268V31.5455H31.3448V30.3268ZM32.5631 31.5455V30.733H34.1876V31.5455H32.5631Z" fill="#262C45"/>
</svg>
