<svg width="150" height="150" viewBox="0 0 150 150" fill="none" xmlns="http://www.w3.org/2000/svg">
<path d="M113.548 77.3761C133.471 77.3761 149.677 93.5911 149.677 113.524C149.677 133.457 133.471 149.672 113.548 149.672C93.6258 149.672 77.4194 133.457 77.4194 113.524C77.4194 93.5911 93.6258 77.3761 113.548 77.3761ZM113.548 144.508C130.625 144.508 144.516 130.609 144.516 113.524C144.516 96.439 130.625 82.5401 113.548 82.5401C96.4723 82.5401 82.5806 96.439 82.5806 113.524C82.5806 130.609 96.4723 144.508 113.548 144.508Z" fill="#5EBADE" fill-opacity="0.1"/>
<path d="M113.548 92.868C124.932 92.868 134.194 102.135 134.194 113.524C134.194 124.913 124.932 134.18 113.548 134.18C102.165 134.18 92.9032 124.913 92.9032 113.524C92.9032 102.135 102.165 92.868 113.548 92.868ZM113.548 129.016C122.088 129.016 129.032 122.068 129.032 113.524C129.032 104.98 122.088 98.032 113.548 98.032C105.009 98.032 98.0645 104.98 98.0645 113.524C98.0645 122.068 105.009 129.016 113.548 129.016Z" fill="#5EBADE" fill-opacity="0.1"/>
<path d="M2.58064 117.619L9.2542 110.942L5.16129 106.847C3.49678 105.182 2.58064 102.969 2.58064 100.614C2.58064 98.2592 3.49678 96.0439 5.16129 94.3811L9.2542 90.286L7.74193 88.773C6.07742 87.1076 5.16129 84.8948 5.16129 82.54C5.16129 80.1853 6.07742 77.9699 7.74193 76.3071L14.4155 69.6301C17.7419 66.2993 23.5484 66.2993 26.8748 69.6301L38.7097 81.4711L81.5123 38.6461L69.6774 26.805C68.0129 25.1422 67.0968 22.9269 67.0968 20.5721C67.0968 18.2173 68.0129 16.0019 69.6774 14.3391L76.351 7.66208C79.6774 4.3313 85.4839 4.3313 88.8103 7.66208L90.3226 9.17513L94.4155 5.08008C97.7419 1.7493 103.548 1.7493 106.875 5.08008L110.968 9.17513L117.641 2.49808C120.968 -0.832695 126.774 -0.832695 130.101 2.49808L141.935 14.3391C143.6 16.0019 144.516 18.2173 144.516 20.5721C144.516 22.9269 143.6 25.1422 141.935 26.805L135.262 33.4821L139.355 37.5771C141.019 39.2399 141.935 41.4553 141.935 43.8101C141.935 46.1648 141.019 48.3802 139.355 50.043L135.262 54.1381L136.774 55.6511C138.439 57.3139 139.355 59.5293 139.355 61.8841C139.355 64.2388 138.439 66.4542 136.774 68.117L133.35 71.5433C149.074 79.0001 160 94.9879 160 113.524C160 139.15 139.161 160 113.548 160C95.0219 160 79.0426 149.068 71.5897 133.336L68.1652 136.762C66.5006 138.427 64.289 139.344 61.9355 139.344C59.5819 139.344 57.3677 138.427 55.7058 136.762L54.1936 135.249L50.1006 139.344C48.4361 141.009 46.2245 141.926 43.871 141.926C41.5174 141.926 39.3032 141.009 37.6413 139.344L33.5484 135.249L26.8748 141.926C25.2103 143.591 22.9987 144.508 20.6452 144.508C18.2916 144.508 16.0774 143.591 14.4155 141.926L2.58064 130.085C0.916138 128.42 0 126.207 0 123.852C0 121.497 0.916138 119.282 2.58064 117.619ZM42.3587 85.122L59.3548 102.127L79.9458 81.5253C80.4723 80.9702 81.0116 80.4331 81.5665 79.9038L102.157 59.3021L85.1613 42.297L42.3587 85.122ZM67.2723 110.049C67.5432 106.408 68.1987 102.876 69.2619 99.5167L63.0039 105.778L67.2723 110.049ZM105.806 62.953L99.5484 69.2143C102.908 68.1506 106.439 67.4947 110.075 67.2236L105.806 62.953ZM138.286 23.1541C138.965 22.475 139.355 21.5326 139.355 20.5721C139.355 19.6116 138.965 18.6691 138.286 17.9901L126.452 6.14903C125.094 4.7909 122.648 4.7909 121.29 6.14903L114.617 12.8261L131.613 29.8311L138.286 23.1541ZM135.706 46.3921C136.385 45.713 136.774 44.7706 136.774 43.8101C136.774 42.8496 136.385 41.9071 135.706 41.2281L103.226 8.73103C101.868 7.3729 99.4219 7.3729 98.0645 8.73103L93.9716 12.8261L131.613 50.4871L135.706 46.3921ZM133.125 64.466C133.804 63.787 134.194 62.8446 134.194 61.8841C134.194 60.9235 133.804 59.9811 133.125 59.3021L85.1613 11.313C83.8039 9.9549 81.3574 9.9549 80 11.313L73.3265 17.9901C72.6477 18.6691 72.2581 19.6116 72.2581 20.5721C72.2581 21.5326 72.6477 22.475 73.3265 23.1541L117.394 67.2417C121.125 67.549 124.725 68.2952 128.157 69.4364L133.125 64.466ZM113.548 154.836C136.315 154.836 154.839 136.302 154.839 113.524C154.839 90.7456 136.315 72.2121 113.548 72.2121C102.588 72.2121 92.6374 76.5369 85.2387 83.5315L83.5716 85.1995C76.5806 92.6021 72.2581 102.558 72.2581 113.524C72.2581 136.302 90.7819 154.836 113.548 154.836ZM64.5161 133.111L69.4864 128.138C68.3458 124.707 67.6 121.102 67.2929 117.369L23.2258 73.281C21.8684 71.9229 19.4219 71.9229 18.0645 73.281L11.391 79.958C10.7123 80.6371 10.3226 81.5795 10.3226 82.54C10.3226 83.5005 10.7123 84.443 11.391 85.122L59.3548 133.111C60.7123 134.469 63.1587 134.469 64.5161 133.111ZM41.2903 135.693C42.6477 137.051 45.0942 137.051 46.4516 135.693L50.5445 131.598L12.9032 93.937L8.81033 98.032C8.13162 98.7111 7.74193 99.6535 7.74193 100.614C7.74193 101.575 8.13162 102.517 8.81033 103.196L41.2903 135.693ZM6.22968 126.434L18.0645 138.275C19.4219 139.633 21.8684 139.633 23.2258 138.275L29.8994 131.598L12.9032 114.593L6.22968 121.27C5.55096 121.949 5.16129 122.892 5.16129 123.852C5.16129 124.813 5.55096 125.755 6.22968 126.434Z" fill="#5EBADE" fill-opacity="0.1"/>
</svg>
