<svg width="44" height="44" viewBox="0 0 44 44" fill="none" xmlns="http://www.w3.org/2000/svg">
<rect width="44" height="44" rx="11" fill="white" fill-opacity="0.75"/>
<path d="M33.8052 24.0091H33.3719V25.6636C33.3719 26.3226 32.8358 26.8586 32.1769 26.8586H31.3628C31.21 26.8586 31.0639 26.8295 30.9295 26.777V27.2919C30.9295 27.9508 30.3934 28.4869 29.7345 28.4869H28.1062C27.4473 28.4869 26.9112 27.9508 26.9112 27.2919V24.0091H17.089V27.2919C17.089 27.9508 16.5529 28.4869 15.8941 28.4869H14.2657C13.6068 28.4869 13.0708 27.9508 13.0708 27.2919V26.777C12.9363 26.8295 12.7903 26.8586 12.6375 26.8586H11.8233C11.1644 26.8586 10.6283 26.3225 10.6283 25.6636V24.0091H10.195C9.5361 24.0091 9 23.4731 9 22.8141V21.1859C9 20.5269 9.5361 19.9909 10.195 19.9909H10.6283V18.3364C10.6283 17.6774 11.1644 17.1414 11.8233 17.1414H12.6374C12.7902 17.1414 12.9362 17.1705 13.0706 17.223V16.7081C13.0706 16.0492 13.6067 15.5131 14.2656 15.5131H15.894C16.5529 15.5131 17.0889 16.0492 17.0889 16.7081V19.9909H26.9111V16.7081C26.9111 16.0492 27.4472 15.5131 28.106 15.5131H29.7344C30.3933 15.5131 30.9294 16.0492 30.9294 16.7081V17.223C31.0638 17.1705 31.2098 17.1414 31.3626 17.1414H32.1768C32.8357 17.1414 33.3717 17.6775 33.3717 18.3364V19.9909H33.805C34.4639 19.9909 35 20.527 35 21.1859V22.8141C35.0002 23.4731 34.4641 24.0091 33.8052 24.0091ZM10.6283 20.7525H10.195V20.7526C9.95606 20.7526 9.76172 20.947 9.76172 21.1859V22.8141C9.76172 23.053 9.95611 23.2474 10.195 23.2474H10.6283V20.7525ZM15.8941 16.2748H14.2657C14.0268 16.2748 13.8325 16.4692 13.8325 16.7081V18.7435C13.8325 18.9538 13.6619 19.1243 13.4516 19.1243C13.2413 19.1243 13.0708 18.9538 13.0708 18.7435V18.3364C13.0708 18.0975 12.8764 17.9031 12.6375 17.9031H11.8233C11.5844 17.9031 11.39 18.0975 11.39 18.3364V25.6637C11.39 25.9026 11.5844 26.0969 11.8233 26.0969H12.6374C12.8764 26.0969 13.0707 25.9026 13.0707 25.6637V20.3716C13.0707 20.1613 13.2412 19.9908 13.4516 19.9908C13.6619 19.9908 13.8324 20.1613 13.8324 20.3716V27.2919C13.8324 27.5308 14.0268 27.7252 14.2657 27.7252H15.894C16.1329 27.7252 16.3273 27.5308 16.3273 27.2919V16.7081H16.3273C16.3273 16.4692 16.1329 16.2748 15.8941 16.2748ZM26.9112 20.7526H17.089V23.2474H26.9112V20.7526ZM32.6102 18.3364C32.6102 18.0974 32.4158 17.9031 32.1769 17.9031H31.3628C31.1238 17.9031 30.9295 18.0975 30.9295 18.3364V23.6284C30.9295 23.8387 30.759 24.0093 30.5486 24.0093C30.3383 24.0093 30.1678 23.8387 30.1678 23.6284V16.708C30.1678 16.4691 29.9734 16.2748 29.7345 16.2748H28.1062C27.8673 16.2748 27.6729 16.4692 27.6729 16.708V27.2919C27.6729 27.5308 27.8673 27.7252 28.1062 27.7252H29.7345C29.9734 27.7252 30.1678 27.5308 30.1678 27.2919V25.2565C30.1678 25.0462 30.3383 24.8756 30.5486 24.8756C30.759 24.8756 30.9295 25.0462 30.9295 25.2565V25.6636C30.9295 25.9025 31.1239 26.0968 31.3628 26.0968H32.1769C32.4158 26.0968 32.6102 25.9025 32.6102 25.6636V18.3364ZM34.2384 21.1859C34.2384 20.9469 34.044 20.7526 33.8052 20.7526H33.3719V23.2474H33.8052C34.0441 23.2474 34.2384 23.053 34.2384 22.8142V21.1859Z" fill="#262C45"/>
</svg>
