<svg width="20" height="20" viewBox="0 0 20 20" fill="none" xmlns="http://www.w3.org/2000/svg">
<path d="M14.6875 1.20001C13.6022 1.20001 12.6072 1.54392 11.7302 2.2222C10.8894 2.87247 10.3296 3.70072 10 4.30298C9.67043 3.70068 9.11063 2.87247 8.2698 2.2222C7.39277 1.54392 6.39777 1.20001 5.3125 1.20001C2.28391 1.20001 0 3.67724 0 6.96228C0 10.5113 2.84934 12.9394 7.16285 16.6153C7.89535 17.2396 8.72563 17.9472 9.58859 18.7018C9.70234 18.8014 9.84844 18.8563 10 18.8563C10.1516 18.8563 10.2977 18.8014 10.4114 18.7018C11.2745 17.9471 12.1047 17.2395 12.8376 16.6149C17.1507 12.9394 20 10.5113 20 6.96228C20 3.67724 17.7161 1.20001 14.6875 1.20001Z" fill="#F6727B"/>
</svg>
