<svg width="14" height="14" viewBox="0 0 14 14" fill="none" xmlns="http://www.w3.org/2000/svg">
<g clip-path="url(#clip0_670_228)">
<path d="M7 0C3.1402 0 0 3.14024 0 7.00004C0 10.8598 3.1402 14 7 14C10.8598 14 14 10.8598 14 7.00004C14 3.14024 10.8598 0 7 0ZM7 12.7273C3.84194 12.7273 1.27273 10.1581 1.27273 7.00004C1.27273 3.84202 3.84194 1.27273 7 1.27273C10.1581 1.27273 12.7273 3.84202 12.7273 7.00004C12.7273 10.1581 10.158 12.7273 7 12.7273Z" fill="#262C45"/>
<path d="M6.99992 2.96972C6.53215 2.96972 6.15161 3.35052 6.15161 3.81859C6.15161 4.28623 6.53215 4.66669 6.99992 4.66669C7.46769 4.66669 7.84824 4.28623 7.84824 3.81859C7.84824 3.35052 7.46769 2.96972 6.99992 2.96972Z" fill="#262C45"/>
<path d="M6.99999 5.93939C6.64855 5.93939 6.36363 6.22431 6.36363 6.57575V10.3939C6.36363 10.7454 6.64855 11.0303 6.99999 11.0303C7.35144 11.0303 7.63636 10.7454 7.63636 10.3939V6.57575C7.63636 6.22431 7.35144 5.93939 6.99999 5.93939Z" fill="#262C45"/>
</g>
<defs>
<clipPath id="clip0_670_228">
<rect width="14" height="14" fill="white"/>
</clipPath>
</defs>
</svg>
