<svg width="26" height="26" viewBox="0 0 26 26" fill="none" xmlns="http://www.w3.org/2000/svg">
<rect x="0.5" y="0.5" width="25" height="25" rx="12.5" fill="#262C45"/>
<rect x="0.5" y="0.5" width="25" height="25" rx="12.5" stroke="#262C45"/>
<path d="M8.41422 11.5858C9.19527 12.3668 9.19527 13.6332 8.41422 14.4142C7.63318 15.1953 6.36685 15.1953 5.5858 14.4142C4.80475 13.6332 4.80475 12.3668 5.5858 11.5858C6.36685 10.8047 7.63318 10.8047 8.41422 11.5858Z" fill="white"/>
<path d="M14.4142 11.5858C15.1953 12.3668 15.1953 13.6332 14.4142 14.4142C13.6332 15.1953 12.3668 15.1953 11.5858 14.4142C10.8047 13.6332 10.8047 12.3668 11.5858 11.5858C12.3668 10.8047 13.6332 10.8047 14.4142 11.5858Z" fill="white"/>
<path d="M20.4142 11.5858C21.1953 12.3668 21.1953 13.6332 20.4142 14.4142C19.6332 15.1953 18.3668 15.1953 17.5858 14.4142C16.8047 13.6332 16.8047 12.3668 17.5858 11.5858C18.3668 10.8047 19.6332 10.8047 20.4142 11.5858Z" fill="white"/>
</svg>
