<svg width="167" height="151" viewBox="0 0 167 151" fill="none" xmlns="http://www.w3.org/2000/svg">
<path d="M159.16 72.2544C159.057 71.8864 158.165 71.1927 157.336 70.698C156.6 70.2579 155.836 69.8036 155.436 69.374C154.512 68.3846 153.527 68.3265 153.515 68.3247L153.462 68.3212L153.425 68.2825C150.793 65.5377 149.879 62.5535 149.073 59.9214C148.871 59.2576 148.679 58.6326 148.466 58.0287C147.392 54.9758 146.015 53.2804 145.105 52.1571C144.538 51.4599 144.113 50.9969 144.154 50.5585C144.672 44.9879 142.3 40.6076 142.3 40.3945C142.3 40.0776 142.316 39.1603 142.333 38.111C142.356 36.692 142.383 35.0828 142.383 34.3363C142.383 33.0898 142.039 31.0669 140.198 29.7041C138.858 28.7129 135.916 28.9084 134.247 28.6126C133.601 28.4981 133.043 28.3995 132.634 28.2851C131.27 27.9066 128.787 27.4928 128.731 23.5015C128.367 22.5086 128.097 21.1987 126.912 20.6194C126.861 20.5966 126.814 20.5684 126.759 20.5473C126.735 20.5367 126.708 20.5297 126.682 20.5208C126.448 20.4363 126.183 20.3747 125.882 20.343C125.858 20.3413 125.831 20.3395 125.807 20.3377C125.683 20.3272 125.555 20.3219 125.419 20.3219C125.284 20.3237 125.155 20.3272 125.032 20.3377C125.007 20.3395 124.981 20.3413 124.956 20.343C124.655 20.3747 124.393 20.4363 124.159 20.5208C124.134 20.5297 124.106 20.5367 124.081 20.5473C124.027 20.5684 123.979 20.5948 123.928 20.6194C122.743 21.2004 122.474 22.5086 122.109 23.5015C122.053 27.4928 119.571 27.9066 118.206 28.2851C117.798 28.3978 117.24 28.4981 116.593 28.6126C114.924 28.9101 111.982 28.7147 110.643 29.7041C108.799 31.0669 108.456 33.0898 108.456 34.3363C108.456 35.0828 108.482 36.692 108.507 38.111C108.525 39.1603 108.539 40.0794 108.539 40.3945C108.539 40.6076 106.167 44.9879 106.685 50.5585C106.725 50.9969 106.299 51.4599 105.734 52.1571C104.824 53.2804 103.447 54.9758 102.373 58.0287C102.162 58.6326 101.97 59.2576 101.766 59.9214C100.959 62.5535 100.046 65.5377 97.4134 68.2825L97.3765 68.3212L97.3236 68.3247C97.3096 68.3265 96.3254 68.3846 95.4011 69.374C95.0014 69.8036 94.2391 70.2579 93.5014 70.698C92.6739 71.1927 91.7795 71.8864 91.6792 72.2544C91.5982 72.5466 91.8851 72.8759 92.3975 72.8741C93.0876 72.8724 93.8376 72.3759 94.6475 71.7368C94.6475 71.7368 92.5735 75.8847 92.5841 78.7035C92.5859 78.957 92.739 79.1225 92.8904 79.1577C93.0683 79.1982 93.6211 78.9324 93.6211 78.9324C93.6176 78.9412 93.3869 79.7422 93.3464 80.0732C93.3253 80.244 93.3781 80.4025 93.4961 80.5169C93.6317 80.6507 93.8359 80.7123 94.0595 80.6824C94.4099 80.6349 94.6951 79.9359 94.7655 79.6929C94.7655 79.6929 94.718 80.663 94.9627 80.7264C95.4011 80.8391 95.6159 80.6489 95.6986 80.5327C96.1634 79.869 96.8465 78.1612 96.9169 77.913C96.9169 77.913 97.2444 77.0679 97.3747 76.6207L97.7814 76.1136C97.6511 76.4605 96.8043 79.2915 96.8131 79.5327C96.8377 79.6172 96.88 79.6753 96.9381 79.7017C96.9997 79.7317 97.0877 79.7264 97.181 79.6859C97.3659 79.6084 98.0156 78.5626 98.2286 78.2193L98.2973 78.1084C98.4504 77.8619 99.2955 75.9323 99.4293 75.5661L99.4892 75.4023C99.6864 74.8689 100.289 73.2456 100.289 72.8019C100.289 72.235 101.209 69.4357 101.31 69.235C101.641 68.573 103.139 66.7191 104.871 64.5729C106.81 62.1732 109.007 59.453 109.711 58.1925C110.782 56.2787 111.046 54.4072 111.173 53.5075C111.192 53.3754 111.208 53.261 111.222 53.1695C111.248 53.0145 111.38 52.7786 111.6 52.3877C112.049 51.5884 113.03 49.0901 113.643 47.0619L113.622 47.039C113.984 45.7908 114.139 43.9157 114.264 42.1939C114.461 44.2837 115.461 45.6288 116.1 46.1605C116.424 46.7151 116.736 57.571 116.592 58.3597C116.264 60.1608 112.66 63.1081 111.514 71.8706C111.07 75.2615 111.514 80.8778 112.005 84.0698C112.729 88.7671 114.023 95.7197 114.74 97.6634C115.511 99.755 116.497 103.59 116.509 104.13C116.527 104.804 116.74 106.738 116.879 107.322C116.965 107.683 117.027 107.944 117.027 108.083C117.027 108.183 116.944 108.637 116.755 109.657C116.34 111.908 115.282 115.347 115.118 117.803C114.828 122.164 115.035 123.248 116.838 128.448C117.752 131.087 118.93 136.272 118.93 137.127C118.93 137.266 118.932 137.423 118.932 137.59C118.942 138.832 118.947 140.488 118.724 140.738C118.203 141.21 118.248 142.444 118.38 142.731L118.395 142.775C118.463 143.259 118.56 144.265 117.903 144.904C117.564 145.235 117.349 145.731 117.122 146.258C116.708 147.219 116.335 148.247 114.954 148.937C114.861 148.985 114.796 149.087 114.764 149.242C114.688 149.606 114.567 150.05 114.71 150.224C115.132 150.478 121.569 150.649 122.652 150.305C123.516 150.033 123.402 147.504 123.171 146.349C122.949 145.24 122.627 143.568 122.627 143.069L122.641 143.002C122.891 142.45 122.858 141.516 122.516 140.726L122.46 140.532L122.463 140.492C122.476 140.312 122.484 138.939 122.513 138.092C122.604 135.393 122.775 130.368 123.028 129.437C123.344 128.282 124.433 124.088 124.453 121.893C124.474 119.34 123.224 114.442 123.002 110.616C122.844 107.884 123.072 107.06 123.044 106.683C123.025 106.394 123.032 106.051 123.041 105.613C123.051 105.164 123.062 104.605 123.044 103.928C123.044 103.701 123.21 102.544 123.504 100.519C123.914 97.6828 124.356 92.9872 124.534 90.9414C125.025 85.2916 124.615 81.443 124.125 77.0221C124.224 77.0485 124.442 77.0855 124.708 77.1154C124.912 77.1559 125.162 77.1682 125.418 77.1629C125.673 77.1682 125.923 77.1559 126.127 77.1154C126.395 77.0855 126.613 77.0485 126.71 77.0221C126.219 81.443 125.81 85.2916 126.301 90.9414C126.479 92.9872 126.919 97.6828 127.331 100.519C127.625 102.544 127.791 103.701 127.791 103.928C127.775 104.605 127.786 105.164 127.794 105.613C127.803 106.049 127.81 106.394 127.791 106.683C127.763 107.058 127.992 107.884 127.833 110.616C127.611 114.442 126.363 119.34 126.382 121.893C126.4 124.088 127.492 128.284 127.807 129.437C128.06 130.368 128.231 135.393 128.323 138.092C128.351 138.939 128.36 140.312 128.374 140.492L128.375 140.532L128.321 140.726C127.979 141.515 127.944 142.45 128.196 143.002L128.21 143.069C128.21 143.568 127.888 145.24 127.666 146.349C127.433 147.506 127.319 150.034 128.183 150.305C129.266 150.649 135.703 150.478 136.127 150.224C136.27 150.048 136.148 149.606 136.073 149.242C136.041 149.087 135.976 148.985 135.883 148.937C134.502 148.245 134.129 147.217 133.717 146.258C133.49 145.731 133.277 145.235 132.935 144.904C132.279 144.265 132.374 143.259 132.442 142.775L132.456 142.731C132.589 142.444 132.634 141.21 132.113 140.738C131.89 140.488 131.893 138.832 131.905 137.59C131.907 137.423 131.907 137.266 131.907 137.127C131.907 136.273 133.085 131.088 133.999 128.448C135.8 123.248 136.008 122.164 135.717 117.803C135.553 115.347 134.495 111.908 134.08 109.657C133.891 108.637 133.809 108.181 133.809 108.083C133.809 107.944 133.87 107.681 133.956 107.322C134.094 106.739 134.31 104.804 134.326 104.13C134.34 103.59 135.326 99.755 136.097 97.6634C136.814 95.7179 138.106 88.7671 138.83 84.0698C139.321 80.8761 139.765 75.2597 139.321 71.8706C138.175 63.1098 134.573 60.1626 134.245 58.3597C134.101 57.571 134.412 46.7133 134.736 46.1605C135.376 45.6288 136.376 44.2837 136.571 42.1939C136.698 43.914 136.851 45.7908 137.215 47.039L137.192 47.0619C137.805 49.0901 138.786 51.5902 139.235 52.3877C139.455 52.7786 139.587 53.0145 139.613 53.1695C139.629 53.261 139.645 53.3754 139.664 53.5075C139.791 54.4072 140.055 56.2787 141.126 58.1925C141.83 59.453 144.027 62.1732 145.966 64.5729C147.7 66.7191 149.196 68.573 149.527 69.235C149.628 69.4374 150.548 72.2368 150.548 72.8019C150.548 73.2438 151.149 74.8689 151.348 75.4023L151.408 75.5661C151.54 75.9323 152.386 77.8619 152.54 78.1084L152.608 78.2193C152.821 78.5626 153.471 79.6067 153.656 79.6859C153.749 79.7264 153.835 79.7317 153.899 79.7017C153.957 79.6753 153.997 79.6172 154.024 79.5327C154.033 79.2915 153.184 76.4622 153.056 76.1136L153.462 76.6207C153.592 77.0679 153.92 77.913 153.92 77.913C153.99 78.1612 154.674 79.869 155.138 80.5327C155.221 80.6489 155.434 80.8408 155.874 80.7264C156.117 80.6648 156.071 79.6929 156.071 79.6929C156.144 79.9341 156.427 80.6349 156.777 80.6824C156.997 80.7123 157.203 80.6525 157.341 80.5169C157.457 80.4007 157.51 80.244 157.489 80.0732C157.448 79.7422 157.218 78.9412 157.216 78.9324C157.216 78.9324 157.767 79.1982 157.945 79.1577C158.096 79.1225 158.251 78.9552 158.251 78.7035C158.262 75.8847 156.188 71.7368 156.188 71.7368C156.998 72.3759 157.748 72.8724 158.438 72.8741C158.954 72.8741 159.241 72.5466 159.16 72.2544Z" fill="#262C45"/>
<path d="M133.117 16.4943C133.199 16.2514 132.766 15.9679 132.42 15.8517C132.42 15.8412 132.421 15.8324 132.421 15.8218C132.421 15.7919 132.423 15.7619 132.423 15.7302C132.423 15.7197 132.423 15.7091 132.423 15.6986C132.421 9.95371 132.103 5.36382 125.604 5.3022C125.602 5.3022 125.602 5.3022 125.602 5.3022C125.539 5.3022 125.481 5.30572 125.418 5.30572C125.356 5.30572 125.296 5.3022 125.233 5.3022H125.231C118.733 5.36382 118.412 9.95371 118.412 15.6986C118.412 15.7091 118.412 15.7197 118.412 15.7302C118.412 15.7602 118.414 15.7919 118.414 15.8218C118.414 15.8324 118.416 15.8412 118.416 15.8517C118.069 15.9679 117.636 16.2531 117.718 16.4943C117.718 16.4961 117.72 16.4979 117.72 16.4996C117.71 16.5401 117.706 16.5806 117.718 16.6194C117.847 16.9979 118.643 20.056 118.919 19.6282C118.946 19.586 118.967 19.512 118.984 19.4205C119.557 21.2656 120.815 22.8642 121.877 24.0385C122.403 23.0473 122.511 21.3131 123.926 20.6194C123.977 20.5966 124.025 20.5684 124.08 20.5473C124.104 20.5367 124.132 20.5296 124.157 20.5208C124.391 20.4363 124.653 20.3747 124.955 20.343C124.979 20.3413 125.006 20.3395 125.03 20.3377C125.153 20.3272 125.284 20.3219 125.418 20.3219C125.551 20.3237 125.682 20.3272 125.805 20.3377C125.83 20.3395 125.856 20.3413 125.881 20.343C126.182 20.3747 126.446 20.4363 126.68 20.5208C126.705 20.5296 126.733 20.5367 126.757 20.5473C126.812 20.5684 126.86 20.5948 126.911 20.6194C128.326 21.3131 128.434 23.0455 128.96 24.0385C130.02 22.8642 131.279 21.2656 131.853 19.4205C131.868 19.512 131.89 19.586 131.918 19.6282C132.194 20.0543 132.988 16.9979 133.117 16.6194C133.131 16.5806 133.127 16.5401 133.115 16.4996C133.117 16.4979 133.117 16.4961 133.117 16.4943Z" fill="#262C45"/>
<path d="M129.032 6.32512C128.754 6.24766 128.476 6.17019 128.198 6.09096C128.057 6.10681 127.925 6.09448 127.9 5.92194C127.87 5.71595 127.786 5.50644 127.867 5.44658C128.034 4.96946 128.391 4.78812 128.529 4.38846C129.238 2.32151 128.296 0.770422 126.154 0.538023C125.275 0.44295 124.395 0.525699 123.544 0.79155C122.169 1.2229 121.571 2.42187 121.94 3.99409C122.006 4.26874 122.067 4.561 122.206 4.80044C122.664 5.58743 122.479 5.98357 121.597 6.304L129.032 6.32512Z" fill="#262C45"/>
<path d="M150.904 68.7578C150.651 68.8863 150.712 70.6452 150.721 71.2614C150.73 71.8794 151.687 75.4868 152.578 75.3477C153.469 75.2069 153.811 74.559 153.982 74.1875C154.151 73.816 155.253 73.1382 155.42 72.7949C155.589 72.4498 153.869 69.7385 153.563 69.5448C153.258 69.3494 153.064 68.6486 152.538 68.4743C152.325 68.4039 151.055 68.6803 150.904 68.7578Z" fill="#262C45"/>
<path d="M153.691 69.2613C153.661 69.0589 154.048 68.9057 154.188 68.9708C154.327 69.036 156.46 70.5149 156.682 70.698C157.383 71.2667 158.58 71.6364 158.483 71.9533C158.263 72.6804 156.844 71.9251 156.08 71.2984C155.318 70.6716 153.77 69.8054 153.691 69.2613Z" fill="#262C45"/>
<path d="M155.95 73.3248C155.756 73.3565 155.395 73.441 155.441 73.8794C155.483 74.3178 157.022 77.934 157.374 78.2897C157.725 78.6471 157.95 78.2316 157.839 77.6224C157.726 77.015 156.17 73.2896 155.95 73.3248Z" fill="#262C45"/>
<path d="M154.916 74.2685C154.758 74.4023 154.557 74.647 154.45 74.9357C154.344 75.2262 156.277 79.9376 156.568 80.045C156.86 80.1506 157.098 79.8989 157.08 79.4622C157.064 79.0274 155.091 74.1206 154.916 74.2685Z" fill="#262C45"/>
<path d="M153.98 75.2263C153.753 75.3161 153.577 75.4904 153.554 75.7615C153.529 76.0309 154.85 79.9817 155.485 79.8743C156.121 79.7651 155.457 78.6189 155.371 78.3672C155.283 78.1137 154.093 75.1805 153.98 75.2263Z" fill="#262C45"/>
<path d="M152.2 75.8055C152.163 75.5784 152.779 76.0185 152.895 76.2456C153.011 76.4745 153.851 78.6471 153.663 78.707C152.994 78.92 152.36 76.7985 152.2 75.8055Z" fill="#262C45"/>
<path d="M99.9311 68.7578C100.185 68.8863 100.123 70.6452 100.114 71.2614C100.105 71.8794 99.1476 75.4868 98.2568 75.3477C97.3659 75.2069 97.0243 74.559 96.8536 74.1875C96.6828 73.816 95.5824 73.1382 95.4134 72.7949C95.2444 72.4498 96.9645 69.7385 97.2708 69.5448C97.5754 69.3494 97.7691 68.6486 98.2955 68.4743C98.5103 68.4039 99.7797 68.6803 99.9311 68.7578Z" fill="#262C45"/>
<path d="M97.1458 69.2613C97.1758 69.0589 96.7884 68.9057 96.6493 68.9708C96.512 69.036 94.3782 70.5149 94.1546 70.698C93.4538 71.2667 92.2566 71.6364 92.3517 71.9533C92.5718 72.6804 93.9908 71.9251 94.7532 71.2984C95.519 70.6716 97.0648 69.8054 97.1458 69.2613Z" fill="#262C45"/>
<path d="M94.8869 73.3248C95.0806 73.3565 95.4415 73.441 95.3958 73.8794C95.3535 74.3178 93.813 77.934 93.4626 78.2897C93.114 78.6471 92.8869 78.2316 92.9978 77.6224C93.1087 77.015 94.6669 73.2896 94.8869 73.3248Z" fill="#262C45"/>
<path d="M95.9187 74.2685C96.0771 74.4023 96.2778 74.647 96.3852 74.9357C96.4909 75.2262 94.5577 79.9376 94.269 80.045C93.9767 80.1506 93.7373 79.8989 93.7549 79.4622C93.7725 79.0274 95.7444 74.1206 95.9187 74.2685Z" fill="#262C45"/>
<path d="M96.8553 75.2263C97.0824 75.3161 97.2602 75.4904 97.2831 75.7615C97.306 76.0309 95.9873 79.9817 95.3517 79.8743C94.7162 79.7651 95.3799 78.6189 95.4679 78.3672C95.5542 78.1137 96.7444 75.1805 96.8553 75.2263Z" fill="#262C45"/>
<path d="M98.6371 75.8055C98.6723 75.5784 98.0561 76.0185 97.9399 76.2456C97.8237 76.4745 96.9839 78.6471 97.1723 78.707C97.843 78.92 98.4769 76.7985 98.6371 75.8055Z" fill="#262C45"/>
<path d="M133.337 57.298C133.689 57.2628 133.992 61.6766 134.094 62.3914C134.194 63.1062 132.407 61.5816 132.104 61.4161C131.802 61.2506 132.782 57.3526 133.337 57.298Z" fill="#262C45"/>
<path d="M141.221 51.2345C140.788 51.349 139.393 51.3754 143.326 55.2381C143.686 55.5903 143.335 50.6747 141.221 51.2345Z" fill="#262C45"/>
<path d="M117.467 57.298C117.115 57.2628 116.812 61.6766 116.711 62.3914C116.609 63.1062 118.398 61.5816 118.699 61.4161C119.002 61.2506 118.021 57.3526 117.467 57.298Z" fill="#262C45"/>
<path d="M109.583 51.2345C110.016 51.349 111.412 51.3754 107.477 55.2381C107.118 55.5903 107.468 50.6747 109.583 51.2345Z" fill="#262C45"/>
<path d="M129.405 92.1492C129.472 91.4344 129.997 101.338 129.909 102.209C129.823 103.081 129.728 108.41 129.324 107.651C127.588 104.384 128.793 98.6898 129.405 92.1492Z" fill="#262C45"/>
<path d="M133.583 127.058C134.28 130.636 131.266 131.025 131.022 142.569C131.002 143.538 130.314 143.425 130.324 143.134C130.55 136.803 131.356 131.944 131.861 130.224C132.189 129.111 133.398 126.106 133.583 127.058Z" fill="#262C45"/>
<path d="M128.944 128.33C128.826 127.909 128.419 125.606 128.235 126.558C127.537 130.136 128.835 130.581 129.081 142.124C129.103 143.092 129.691 142.347 129.68 142.057C129.453 135.726 129.217 136.018 129.162 131.97C129.141 130.5 129.272 129.493 128.944 128.33Z" fill="#262C45"/>
<path d="M121.398 92.1492C121.331 91.4344 120.807 101.338 120.895 102.209C120.981 103.081 121.076 108.41 121.479 107.651C123.215 104.384 122.011 98.6898 121.398 92.1492Z" fill="#262C45"/>
<path d="M117.22 127.058C116.523 130.636 119.537 131.025 119.782 142.569C119.803 143.538 120.49 143.425 120.479 143.134C120.252 136.803 119.447 131.944 118.942 130.224C118.615 129.111 117.407 126.106 117.22 127.058Z" fill="#262C45"/>
<path d="M121.861 128.33C121.979 127.909 122.386 125.606 122.571 126.558C123.268 130.136 121.97 130.581 121.724 142.124C121.703 143.092 121.115 142.347 121.125 142.057C121.352 135.726 121.586 136.018 121.643 131.97C121.662 130.5 121.534 129.493 121.861 128.33Z" fill="#262C45"/>
<path d="M129.298 143.811C129.298 143.115 127.773 149.363 128.645 149.886C129.515 150.409 132.432 150.191 133.478 150.017C134.523 149.844 131.648 143.157 131.648 143.157C131.648 143.157 132.824 148.973 130.733 149.103C130.213 149.135 129.298 145.029 129.298 143.811Z" fill="#262C45"/>
<path d="M121.652 143.811C121.652 143.115 123.175 149.363 122.305 149.886C121.435 150.409 118.516 150.191 117.472 150.017C116.426 149.844 119.301 143.157 119.301 143.157C119.301 143.157 118.125 148.973 120.215 149.103C120.736 149.135 121.652 145.029 121.652 143.811Z" fill="#262C45"/>
<path d="M141.05 43.7977C141.208 44.3418 142.418 50.8102 141.208 50.5074C140.469 50.0848 141.05 43.7977 141.05 43.7977Z" fill="#262C45"/>
<path d="M109.755 43.7977C109.599 44.3418 108.385 50.8102 109.599 50.5074C110.334 50.0848 109.755 43.7977 109.755 43.7977Z" fill="#262C45"/>
<path d="M145.374 53.6131C145.834 53.0462 150.857 66.1873 151.038 66.844C151.219 67.5007 150.07 68.0782 149.913 67.6433C149.754 67.2084 148.485 60.2453 145.374 53.6131Z" fill="#262C45"/>
<path d="M105.431 53.6131C104.97 53.0462 99.9487 66.1873 99.7674 66.844C99.586 67.5007 100.736 68.0782 100.892 67.6433C101.051 67.2084 102.318 60.2453 105.431 53.6131Z" fill="#262C45"/>
<path d="M127.442 21.6793C128.18 28.8344 129.405 27.352 131.618 28.4752C130.458 28.6865 130.131 28.4365 126.69 29.9119C126.55 27.5245 126.597 22.7568 126.247 21.5631C126.599 21.5983 127.442 21.6793 127.442 21.6793Z" fill="#EEE5E0" fill-opacity="0.4"/>
<path d="M126.227 31.7376C126.789 30.8943 132.196 28.683 136.795 29.7728C131.212 29.808 132.573 39.9033 126.146 42.8699C125.796 40.9368 125.756 32.4436 126.227 31.7376Z" fill="#EEE5E0" fill-opacity="0.4"/>
<path d="M134.782 31.4911C136.749 34.0898 140.365 38.0916 140.821 38.1621C141.171 38.0212 142.189 34.3011 140.365 31.9137C139.039 30.1812 135.835 30.5791 134.782 31.4911Z" fill="#FFCAA4"/>
<path d="M133.986 33.1408C134.689 33.176 137.779 37.2131 137.462 37.81C137.147 38.4068 132.196 38.9684 131.669 38.9332C131.143 38.8998 133.169 33.1003 133.986 33.1408Z" fill="#EEE5E0" fill-opacity="0.4"/>
<path d="M138.117 37.1092C142.539 41.3805 139.17 48.3524 140.083 51.7363C135.168 46.3366 138.995 39.5265 138.117 37.1092Z" fill="#FFCAA4"/>
<path d="M126.46 45.0671C128.53 43.2942 130.358 41.7537 131.127 40.4526C132.8 39.3329 131.132 41.0741 135.766 40.192C133.147 49.3613 133.133 48.4193 132.273 56.3244C132.083 58.0762 126.323 51.2099 126.159 49.1289C125.94 46.3436 126.219 46.0566 126.46 45.0671Z" fill="#FFCAA4"/>
<path opacity="0.7" d="M129.571 66.2225C130.354 64.6556 133.111 62.6274 134.678 63.2806C136.247 63.9338 138.397 69.2913 138.332 71.7086C137.68 69.4867 133.883 67.006 129.571 66.2225Z" fill="#FFCAA4"/>
<path opacity="0.7" d="M126.787 66.7947C127.831 66.2718 137.974 68.8088 138.823 74.4921C139.018 75.7984 138.414 81.0433 135.92 83.399C135.742 79.7862 128.844 80.9799 126.541 75.721C126.411 74.2174 126.657 67.7754 126.787 66.7947Z" fill="#FFCAA4"/>
<path opacity="0.7" d="M124.282 66.7947C123.236 66.2718 113.095 68.8088 112.245 74.4921C112.049 75.7984 112.655 81.0433 115.148 83.399C115.326 79.7862 122.224 80.9799 124.527 75.721C124.659 74.2174 124.412 67.7754 124.282 66.7947Z" fill="#FFCAA4"/>
<path d="M140.839 39.8082C141.627 40.2924 143.42 46.0953 142.788 50.6887C142.103 44.2203 141.207 41.2589 140.839 39.8082Z" fill="#FFCAA4"/>
<path d="M140.386 54.9476C140.268 54.3561 141.353 55.5797 142.634 55.4459C143.916 55.3121 146.978 64.1714 147.724 65.3898C146.335 65.0271 140.62 56.1061 140.386 54.9476Z" fill="#EEE5E0" fill-opacity="0.4"/>
<path d="M144.754 53.6096C144.77 56.4089 145.302 61.0869 148.768 65.5165C148.89 61.9337 146.022 56.8262 144.754 53.6096Z" fill="#EEE5E0" fill-opacity="0.4"/>
<path d="M138.742 80.0591C139.015 80.6049 137.698 88.7741 137.351 89.5576C136.914 87.4678 136.096 85.4008 136.444 84.5311C136.791 83.6596 138.393 79.3637 138.742 80.0591Z" fill="#EEE5E0" fill-opacity="0.4"/>
<path d="M132.779 82.9535C133.073 82.1436 135.83 84.9148 136.096 85.9254C136.705 88.2336 137.09 87.9008 135.958 95.0436C134.997 101.111 133.846 101.116 133.747 105.688C133.453 101.803 133.722 101.31 133.42 100.202C134.983 96.8218 135.043 87.135 132.779 82.9535Z" fill="#EEE5E0" fill-opacity="0.4"/>
<path d="M131.654 81.524C131.451 82.6384 135.795 91.4978 132.78 100.079C132.171 101.813 130.574 105.116 130.226 105.29C130.838 102.225 130.398 101.121 130.226 99.4662C129.423 91.7266 130.837 82.9536 131.654 81.524Z" fill="#EEE5E0" fill-opacity="0.4"/>
<path d="M127.198 78.8302C127.284 78.3689 130.372 80.531 130.428 81.318C130.735 85.5064 128.816 88.6561 128.384 98.1775C128.102 90.1896 125.347 88.6385 127.198 78.8302Z" fill="#EEE5E0" fill-opacity="0.4"/>
<path d="M131.627 105.215C131.564 104.581 132.823 103.732 132.847 104.132C132.99 106.442 135.14 119.68 135.14 121.572C135.14 123.467 132.208 127.641 131.946 127.55C131.684 127.46 131.286 124.136 131.372 123.865C131.395 123.798 132.474 113.704 131.627 105.215Z" fill="#EEE5E0" fill-opacity="0.4"/>
<path d="M131.081 105.239C130.907 104.452 128.106 113.127 127.757 116.194C127.409 119.261 126.794 125.921 127.838 126.101C128.884 126.28 130.303 124.349 130.389 123.537C130.444 123.039 131.671 107.885 131.081 105.239Z" fill="#EEE5E0" fill-opacity="0.4"/>
<path d="M123.361 21.6793C122.622 28.8344 121.396 27.352 119.185 28.4752C120.344 28.6865 120.671 28.4365 124.111 29.9119C124.252 27.5245 124.205 22.7568 124.555 21.5631C124.205 21.5983 123.361 21.6793 123.361 21.6793Z" fill="#EEE5E0" fill-opacity="0.4"/>
<path d="M124.578 31.7376C124.014 30.8943 118.608 28.683 114.009 29.7728C119.592 29.808 118.233 39.9033 124.657 42.8699C125.009 40.9368 125.048 32.4436 124.578 31.7376Z" fill="#EEE5E0" fill-opacity="0.4"/>
<path d="M116.021 31.4911C114.055 34.0898 110.438 38.0916 109.982 38.1621C109.632 38.0212 108.614 34.3011 110.438 31.9137C111.764 30.1812 114.968 30.5791 116.021 31.4911Z" fill="#FFCAA4"/>
<path d="M116.817 33.1408C116.115 33.176 113.025 37.2131 113.342 37.81C113.658 38.4068 118.608 38.9684 119.136 38.9332C119.66 38.8998 117.636 33.1003 116.817 33.1408Z" fill="#EEE5E0" fill-opacity="0.4"/>
<path d="M112.687 37.1092C108.264 41.3805 111.632 48.3524 110.72 51.7363C115.636 46.3366 111.808 39.5265 112.687 37.1092Z" fill="#FFCAA4"/>
<path opacity="0.7" d="M121.233 66.2225C120.447 64.6556 117.692 62.6274 116.125 63.2806C114.558 63.9338 112.407 69.2913 112.472 71.7086C113.125 69.4867 116.921 67.006 121.233 66.2225Z" fill="#FFCAA4"/>
<path d="M109.965 39.8082C109.174 40.2924 107.384 46.0953 108.016 50.6887C108.702 44.2203 109.597 41.2589 109.965 39.8082Z" fill="#FFCAA4"/>
<path d="M110.417 54.9476C110.537 54.3561 109.451 55.5797 108.169 55.4459C106.887 55.3121 103.826 64.1714 103.079 65.3898C104.468 65.0271 110.183 56.1061 110.417 54.9476Z" fill="#EEE5E0" fill-opacity="0.4"/>
<path d="M106.049 53.6096C106.033 56.4089 105.503 61.0869 102.035 65.5165C101.915 61.9337 104.782 56.8262 106.049 53.6096Z" fill="#EEE5E0" fill-opacity="0.4"/>
<path d="M112.062 80.0591C111.789 80.6049 113.104 88.7741 113.454 89.5576C113.889 87.4678 114.708 85.4008 114.361 84.5311C114.012 83.6596 112.41 79.3637 112.062 80.0591Z" fill="#EEE5E0" fill-opacity="0.4"/>
<path d="M118.027 82.9535C117.733 82.1436 114.975 84.9148 114.71 85.9254C114.102 88.2336 113.715 87.9008 114.847 95.0436C115.808 101.111 116.96 101.116 117.058 105.688C117.352 101.803 117.083 101.31 117.386 100.202C115.821 96.8218 115.761 87.135 118.027 82.9535Z" fill="#EEE5E0" fill-opacity="0.4"/>
<path d="M119.15 81.524C119.352 82.6384 115.009 91.4978 118.025 100.079C118.632 101.813 120.231 105.116 120.579 105.29C119.967 102.225 120.405 101.121 120.579 99.4662C121.381 91.7266 119.967 82.9536 119.15 81.524Z" fill="#EEE5E0" fill-opacity="0.4"/>
<path d="M123.608 78.8302C123.521 78.3689 120.433 80.531 120.377 81.318C120.071 85.5064 121.988 88.6561 122.421 98.1775C122.703 90.1896 125.456 88.6385 123.608 78.8302Z" fill="#EEE5E0" fill-opacity="0.4"/>
<path d="M119.178 105.215C119.241 104.581 117.983 103.732 117.958 104.132C117.815 106.442 115.666 119.68 115.666 121.572C115.666 123.467 118.597 127.641 118.859 127.55C119.12 127.46 119.52 124.136 119.433 123.865C119.41 123.798 118.329 113.704 119.178 105.215Z" fill="#EEE5E0" fill-opacity="0.4"/>
<path d="M119.722 105.239C119.896 104.452 122.697 113.127 123.046 116.194C123.395 119.261 124.009 125.921 122.965 126.101C121.919 126.28 120.5 124.349 120.414 123.537C120.361 123.039 119.132 107.885 119.722 105.239Z" fill="#EEE5E0" fill-opacity="0.4"/>
<path d="M126.815 53.5039C126.815 53.5039 130.664 58.4812 131.728 58.4812C132.791 58.4812 127.333 64.0059 126.923 64.7524C126.514 65.4989 126.242 54.474 126.815 53.5039Z" fill="#FFCAA4"/>
<path d="M124.579 45.0671C122.509 43.2942 120.682 41.7537 119.912 40.4526C118.24 39.3329 119.907 41.0741 115.273 40.192C117.893 49.3613 117.907 48.4193 118.766 56.3244C118.956 58.0762 124.717 51.2099 124.881 49.1289C125.099 46.3436 124.821 46.0566 124.579 45.0671Z" fill="#FFCAA4"/>
<path d="M124.224 53.5039C124.224 53.5039 120.375 58.4812 119.312 58.4812C118.247 58.4812 123.706 64.0059 124.116 64.7524C124.525 65.4989 124.798 54.474 124.224 53.5039Z" fill="#FFCAA4"/>
<path d="M74.9939 72.2544C74.8918 71.8865 73.9992 71.1928 73.1717 70.6981C72.434 70.2579 71.6717 69.8037 71.272 69.3741C70.3477 68.3846 69.3635 68.3265 69.3494 68.3248L69.2966 68.3212L69.2596 68.2825C66.6275 65.5377 65.7138 62.5535 64.9074 59.9214C64.705 59.2577 64.5131 58.6326 64.3 58.0288C63.2261 54.9759 61.8493 53.2804 60.939 52.1571C60.3739 51.4599 59.9478 50.9969 59.9883 50.5585C60.5059 44.988 58.1344 40.6076 58.1344 40.3946C58.1344 40.0777 58.1502 39.1604 58.1661 38.1111C58.189 36.692 58.2154 35.0828 58.2154 34.3363C58.2154 33.0898 57.8721 31.0669 56.0287 29.7042C54.6889 28.713 51.7469 28.9084 50.0796 28.6126C49.4335 28.4982 48.8754 28.3978 48.4669 28.2851C47.231 27.9418 45.0743 27.5686 44.6411 24.528C43.5672 25.558 42.4193 26.1601 41.4386 26.1601C41.3787 26.1601 41.3154 26.1548 41.2537 26.1513C41.1921 26.1566 41.1287 26.1601 41.0689 26.1601C40.0882 26.1601 38.9403 25.558 37.8663 24.5298C37.4315 27.5703 35.2765 27.9436 34.0406 28.2869C33.6321 28.3996 33.074 28.4999 32.4278 28.6144C30.7588 28.9119 27.8186 28.7165 26.477 29.7059C24.6354 31.0687 24.2903 33.0916 24.2903 34.3381C24.2903 35.0846 24.3168 36.6938 24.3396 38.1128C24.3572 39.1621 24.3731 40.0812 24.3731 40.3963C24.3731 40.6094 22.0016 44.9897 22.5192 50.5603C22.5597 50.9987 22.1354 51.4617 21.5685 52.1589C20.6582 53.2822 19.2814 54.9776 18.2075 58.0305C17.9944 58.6344 17.8043 59.2594 17.6001 59.9232C16.7937 62.5553 15.8799 65.5395 13.2478 68.2843L13.2109 68.323L13.1581 68.3265C13.144 68.3283 12.1598 68.3864 11.2355 69.3758C10.8358 69.8054 10.0735 70.2597 9.33579 70.6998C8.50831 71.1945 7.61392 71.8882 7.51357 72.2562C7.43258 72.5484 7.71956 72.8777 8.23189 72.8759C8.92205 72.8742 9.67206 72.3777 10.4819 71.7386C10.4819 71.7386 8.40795 75.8866 8.41851 78.7053C8.42028 78.9588 8.57345 79.1243 8.72486 79.1595C8.90268 79.2 9.45375 78.9342 9.45375 78.9342C9.45199 78.943 9.22135 79.744 9.18086 80.075C9.15973 80.2458 9.21255 80.4043 9.32875 80.5187C9.46431 80.6525 9.6703 80.7141 9.89214 80.6842C10.2425 80.6367 10.5277 79.9377 10.5981 79.6947C10.5981 79.6947 10.5524 80.6648 10.7953 80.7282C11.2355 80.8409 11.4485 80.6507 11.5313 80.5345C11.9961 79.8708 12.6792 78.163 12.7496 77.9148C12.7496 77.9148 13.0771 77.0697 13.2074 76.6225L13.6141 76.1154C13.4838 76.4623 12.6369 79.2933 12.6457 79.5345C12.6704 79.619 12.7126 79.6771 12.7707 79.7035C12.8341 79.7335 12.9204 79.7282 13.0137 79.6877C13.1985 79.6102 13.8482 78.5644 14.0612 78.2211L14.1299 78.1102C14.2831 77.8637 15.1299 75.9341 15.262 75.5679L15.3218 75.4041C15.519 74.8707 16.1212 73.2456 16.1212 72.8037C16.1212 72.2368 17.0419 69.4375 17.1423 69.2368C17.4733 68.5748 18.9698 66.7209 20.704 64.5747C22.6424 62.175 24.8397 59.4548 25.5439 58.1943C26.6143 56.2805 26.8784 54.409 27.0052 53.5093C27.0246 53.3772 27.0404 53.2628 27.0545 53.1713C27.0809 53.0163 27.2129 52.7804 27.433 52.3895C27.8802 51.592 28.8626 49.0919 29.4753 47.0637L29.4524 47.0408C29.8151 45.7926 29.97 43.9175 30.0968 42.1957C30.2922 44.2855 31.294 45.6306 31.9331 46.1623C32.2571 46.7151 32.5669 57.5728 32.4243 58.3615C32.0969 60.1626 28.4947 63.1099 27.3485 71.8724C26.9048 75.2633 27.3485 80.8796 27.8397 84.0716C28.5616 88.7689 29.8556 95.7215 30.5722 97.6652C31.3433 99.7568 32.3293 103.591 32.3433 104.132C32.3609 104.806 32.5757 106.739 32.7131 107.324C32.7993 107.685 32.861 107.945 32.861 108.084C32.861 108.185 32.7782 108.639 32.5898 109.658C32.1743 111.91 31.1162 115.349 30.9525 117.805C30.662 122.166 30.8697 123.25 32.6726 128.449C33.5863 131.088 34.7642 136.273 34.7642 137.129C34.7642 137.268 34.7659 137.425 34.7677 137.592C34.78 138.833 34.7835 140.49 34.5599 140.74C34.0388 141.212 34.0846 142.446 34.2166 142.733L34.2307 142.777C34.2994 143.261 34.3962 144.267 33.7395 144.906C33.3997 145.237 33.1849 145.733 32.9578 146.26C32.544 147.221 32.1708 148.249 30.7905 148.939C30.6972 148.987 30.632 149.089 30.6003 149.244C30.5246 149.608 30.4032 150.052 30.5458 150.226C30.9683 150.48 37.4051 150.651 38.4878 150.307C39.3523 150.034 39.2379 147.506 39.0072 146.351C38.7854 145.242 38.4632 143.569 38.4632 143.071L38.4773 143.004C38.7273 142.451 38.6938 141.518 38.3523 140.728L38.2959 140.534L38.2995 140.494C38.3118 140.314 38.3206 138.941 38.3488 138.094C38.4403 135.395 38.6111 130.37 38.8646 129.439C39.1798 128.284 40.2696 124.09 40.2889 121.895C40.3101 119.342 39.06 114.444 38.8382 110.618C38.6797 107.885 38.9086 107.062 38.8805 106.685C38.8611 106.396 38.8664 106.053 38.8769 105.614C38.8857 105.165 38.8981 104.607 38.8805 103.929C38.8805 103.702 39.046 102.546 39.34 100.521C39.7502 97.6846 40.1921 92.989 40.3699 90.9432C40.8611 85.2934 40.4509 81.4448 39.9597 77.0239C40.0583 77.0503 40.2766 77.0873 40.5425 77.1172C40.7467 77.1577 40.9967 77.17 41.252 77.1647C41.509 77.17 41.759 77.1577 41.9615 77.1172C42.2291 77.0873 42.4474 77.0503 42.5443 77.0239C42.0531 81.4448 41.6428 85.2934 42.134 90.9432C42.3119 92.989 42.7538 97.6846 43.164 100.521C43.458 102.546 43.6235 103.702 43.6235 103.929C43.6077 104.607 43.6182 105.165 43.627 105.614C43.6358 106.051 43.6429 106.396 43.6235 106.685C43.5971 107.06 43.826 107.885 43.6658 110.618C43.4439 114.444 42.1939 119.342 42.215 121.895C42.2326 124.09 43.3242 128.286 43.6394 129.439C43.8929 130.37 44.0637 135.395 44.1552 138.094C44.1852 138.941 44.1922 140.314 44.2045 140.494L44.208 140.534L44.1535 140.728C43.8119 141.517 43.7767 142.451 44.0285 143.004L44.0425 143.071C44.0425 143.569 43.7203 145.242 43.4985 146.351C43.2679 147.508 43.1534 150.036 44.0161 150.307C45.0989 150.651 51.5357 150.48 51.9582 150.226C52.1008 150.05 51.9793 149.608 51.9036 149.244C51.8719 149.089 51.8068 148.987 51.7135 148.939C50.3332 148.247 49.9599 147.219 49.5462 146.26C49.3191 145.733 49.106 145.237 48.7645 144.906C48.1078 144.267 48.2046 143.261 48.2733 142.777L48.2874 142.733C48.4194 142.446 48.4652 141.212 47.944 140.74C47.7204 140.49 47.724 138.833 47.7363 137.592C47.738 137.425 47.7398 137.268 47.7398 137.129C47.7398 136.275 48.9159 131.09 49.8314 128.449C51.6325 123.25 51.842 122.166 51.5498 117.805C51.386 115.349 50.3279 111.91 49.9124 109.658C49.724 108.639 49.6413 108.183 49.6413 108.084C49.6413 107.945 49.7029 107.683 49.7891 107.324C49.9265 106.741 50.1413 104.806 50.1589 104.132C50.173 103.591 51.1589 99.7568 51.93 97.6652C52.6466 95.7197 53.9406 88.7689 54.6625 84.0716C55.1537 80.8779 55.5974 75.2633 55.1537 71.8724C54.0076 63.1116 50.4054 60.1644 50.0779 58.3615C49.9335 57.5728 50.2434 46.7151 50.5691 46.1623C51.2082 45.6306 52.2082 44.2855 52.4054 42.1957C52.5322 43.9158 52.6853 45.7926 53.0498 47.0408L53.0269 47.0637C53.6396 49.0919 54.6202 51.592 55.0692 52.3895C55.2893 52.7804 55.4213 53.0163 55.4477 53.1713C55.4618 53.2628 55.4794 53.3772 55.497 53.5093C55.6238 54.409 55.8879 56.2805 56.9583 58.1943C57.6626 59.4548 59.8598 62.175 61.7982 64.5747C63.5324 66.7209 65.0289 68.5748 65.3599 69.2368C65.4603 69.4392 66.3811 72.2386 66.3811 72.8037C66.3811 73.2456 66.9832 74.8707 67.1804 75.4041L67.2402 75.5679C67.3723 75.9341 68.2191 77.8637 68.3723 78.1102L68.441 78.2211C68.654 78.5644 69.3037 79.6085 69.4885 79.6877C69.5818 79.7282 69.6681 79.7335 69.7315 79.7035C69.7878 79.6771 69.8301 79.619 69.8565 79.5345C69.8653 79.2933 69.0184 76.464 68.8882 76.1154L69.2949 76.6225C69.4251 77.0697 69.7526 77.9148 69.7526 77.9148C69.823 78.163 70.5062 79.8708 70.971 80.5345C71.0537 80.6507 71.2667 80.8426 71.7069 80.7282C71.9516 80.6666 71.9041 79.6947 71.9041 79.6947C71.9763 79.9359 72.2597 80.6367 72.6101 80.6842C72.8319 80.7141 73.0379 80.6543 73.1735 80.5187C73.2897 80.4025 73.3425 80.2458 73.3214 80.075C73.2809 79.744 73.0502 78.943 73.0485 78.9342C73.0485 78.9342 73.5995 79.2 73.7774 79.1595C73.9288 79.1243 74.0837 78.957 74.0837 78.7053C74.0943 75.8866 72.0203 71.7386 72.0203 71.7386C72.8301 72.3777 73.5802 72.8742 74.2703 72.8759C74.7879 72.8742 75.0749 72.5467 74.9939 72.2544Z" fill="#262C45"/>
<path d="M45.4457 6.32515C45.1693 6.24592 44.8894 6.17022 44.6112 6.09099C44.4704 6.10683 44.3366 6.09451 44.3137 5.92373C44.2838 5.71598 44.1975 5.50647 44.2802 5.44837C44.4475 4.97124 44.8031 4.78814 44.9405 4.39025C45.65 2.3233 44.7098 0.772208 42.5636 0.54157C41.6869 0.444736 40.8048 0.525724 39.9562 0.793336C38.5812 1.22468 37.9808 2.42365 38.3523 3.99763C38.4157 4.27405 38.4808 4.56279 38.6164 4.80399C39.0759 5.59274 38.891 5.98711 38.0072 6.30754L45.4457 6.32515Z" fill="#262C45"/>
<path d="M48.2522 15.975C48.2539 15.924 48.2557 15.8729 48.2574 15.8201C48.2574 15.7901 48.2592 15.7602 48.2592 15.7285C48.2592 15.718 48.2592 15.7074 48.2592 15.6968C48.2574 9.95199 47.9388 5.3621 41.4404 5.30048C41.377 5.30048 41.3171 5.304 41.2555 5.304C41.1939 5.304 41.134 5.30048 41.0707 5.30048C34.574 5.3621 34.2536 9.95199 34.2518 15.6968C34.2518 15.7074 34.2518 15.718 34.2518 15.7285C34.2518 15.7585 34.2536 15.7901 34.2536 15.8201C34.2536 15.8306 34.2536 15.8394 34.2554 15.85C33.9085 15.9662 33.4754 16.2514 33.5582 16.4926C33.6867 16.8712 34.4807 19.9293 34.7571 19.5015C34.7748 19.4733 34.7888 19.4328 34.8029 19.3818C36.0072 23.3396 38.9403 26.1566 41.0707 26.1566C41.1323 26.1566 41.1939 26.1513 41.2555 26.1478C41.3171 26.153 41.3805 26.1566 41.4404 26.1566C43.5619 26.1566 46.4792 23.3625 47.6923 19.4311C47.7081 19.5156 47.7275 19.5842 47.7539 19.6247C48.0303 20.0508 48.8244 16.9944 48.9529 16.6159C49.0356 16.3747 48.599 16.0912 48.2522 15.975Z" fill="#262C45"/>
<path d="M47.2134 138.759C47.6007 138.703 47.694 140.451 47.7028 141.17C47.7116 141.888 48.4458 143.055 48.0602 143.517C47.6747 143.978 46.5848 144.619 45.9422 145.411C45.2996 146.203 44.407 147.783 44.333 147.196C44.2591 146.608 44.0302 144.064 44.3489 143.407C44.6675 142.749 45.7151 138.974 47.2134 138.759Z" fill="#262C45"/>
<path d="M48.0338 145.126C48.2909 145.622 50.9194 148.751 50.9265 149.274C50.9335 149.797 47.3877 149.923 46.9968 149.929C46.6042 149.934 46.5831 149.918 46.2433 148.878C45.9035 147.837 45.8876 146.726 46.1464 146.462C46.4035 146.198 47.9 144.867 48.0338 145.126Z" fill="#262C45"/>
<path d="M45.1182 147.073C44.7749 147.147 44.1552 148.327 44.1605 148.719C44.1658 149.11 44.0478 149.788 44.3753 149.783C44.7027 149.779 45.6852 150.092 45.7433 149.439C45.7978 148.784 45.7697 146.934 45.1182 147.073Z" fill="#262C45"/>
<path d="M44.9351 137.191C45.1587 137.055 45.8823 136.446 46.2855 136.201C46.6869 135.957 47.1007 137.02 46.7626 137.268C46.4246 137.516 44.9281 140.46 44.7837 140.781C44.6411 141.101 44.5337 137.435 44.9351 137.191Z" fill="#262C45"/>
<path d="M49.9 110.581C50.2187 111.565 50.0673 115.514 49.4353 117.729C48.8032 119.944 47.8454 124.428 47.5585 125.884C47.2715 127.34 46.0479 134.847 45.9563 135.487C45.863 136.126 45.3559 136.249 45.3964 135.435C45.4369 134.622 46.407 131.125 46.4475 130.312C46.488 129.499 47.1095 121.814 47.569 119.25C48.1078 116.259 49.7504 110.116 49.9 110.581Z" fill="#262C45"/>
<path d="M35.2923 138.759C34.905 138.703 34.8117 140.451 34.8029 141.17C34.7941 141.888 34.0599 143.055 34.4455 143.517C34.8328 143.978 35.9209 144.619 36.5635 145.411C37.2061 146.203 38.1005 147.783 38.1727 147.196C38.2466 146.608 38.4755 144.064 38.1586 143.407C37.8399 142.749 36.7924 138.974 35.2923 138.759Z" fill="#262C45"/>
<path d="M34.4736 145.126C34.2184 145.622 31.588 148.751 31.581 149.274C31.5739 149.797 35.1198 149.923 35.5106 149.929C35.9033 149.934 35.9244 149.918 36.2642 148.878C36.604 147.837 36.6198 146.726 36.361 146.462C36.104 146.198 34.6075 144.867 34.4736 145.126Z" fill="#262C45"/>
<path d="M37.3892 147.073C37.7325 147.147 38.3523 148.327 38.347 148.719C38.3417 149.11 38.4597 149.788 38.1322 149.783C37.8065 149.779 36.8223 150.092 36.766 149.439C36.7096 148.784 36.7378 146.934 37.3892 147.073Z" fill="#262C45"/>
<path d="M37.5706 137.191C37.347 137.055 36.6234 136.446 36.2219 136.201C35.8188 135.957 35.4068 137.02 35.7431 137.268C36.0811 137.516 37.5776 140.46 37.722 140.781C37.8663 141.101 37.9737 137.435 37.5706 137.191Z" fill="#262C45"/>
<path d="M32.6057 110.581C32.2887 111.565 32.4384 115.514 33.0705 117.729C33.7025 119.944 34.6603 124.428 34.9473 125.884C35.2325 127.34 36.4561 134.847 36.5494 135.487C36.6427 136.126 37.1498 136.249 37.111 135.435C37.0705 134.622 36.1004 131.125 36.06 130.312C36.0195 129.499 35.398 121.814 34.9385 119.25C34.3997 116.259 32.7571 110.116 32.6057 110.581Z" fill="#262C45"/>
<path d="M66.7385 68.7579C66.4849 68.8865 66.5466 70.6453 66.5554 71.2615C66.5642 71.8777 67.5219 75.4869 68.4128 75.3479C69.3019 75.207 69.6452 74.5591 69.816 74.1876C69.9868 73.8161 71.0872 73.1383 71.2562 72.795C71.4252 72.4499 69.7051 69.7386 69.3987 69.5449C69.0942 69.3495 68.9005 68.6488 68.3741 68.4745C68.1593 68.404 66.8899 68.6805 66.7385 68.7579Z" fill="#262C45"/>
<path d="M69.5255 69.2615C69.4956 69.059 69.8811 68.9058 70.0202 68.971C70.1593 69.0361 72.2914 70.515 72.515 70.6981C73.2157 71.2668 74.4129 71.6365 74.3161 71.9534C74.096 72.6788 72.677 71.9253 71.9146 71.2985C71.1523 70.6717 69.6065 69.8055 69.5255 69.2615Z" fill="#262C45"/>
<path d="M71.7826 73.3249C71.5889 73.3566 71.228 73.4411 71.2738 73.8795C71.316 74.3179 72.8566 77.9342 73.2069 78.2898C73.5573 78.6472 73.7826 78.2317 73.6717 77.6225C73.5608 77.0151 72.0044 73.2897 71.7826 73.3249Z" fill="#262C45"/>
<path d="M70.7509 74.2704C70.5924 74.4042 70.3917 74.6471 70.2843 74.9376C70.1787 75.2281 72.1118 79.9395 72.4006 80.0469C72.6928 80.1525 72.9323 79.9008 72.9147 79.4641C72.8988 79.0275 70.9252 74.1207 70.7509 74.2704Z" fill="#262C45"/>
<path d="M69.8142 75.2264C69.5871 75.3162 69.4111 75.4905 69.3882 75.7616C69.3653 76.031 70.684 79.9818 71.3196 79.8744C71.9534 79.7652 71.2914 78.6191 71.2051 78.3673C71.1171 78.1138 69.9269 75.1806 69.8142 75.2264Z" fill="#262C45"/>
<path d="M68.0343 75.8056C67.9973 75.5785 68.6135 76.0186 68.7315 76.2458C68.8476 76.4746 69.6875 78.6472 69.4991 78.7071C68.8283 78.9201 68.1945 76.7986 68.0343 75.8056Z" fill="#262C45"/>
<path d="M56.6044 52.8368C56.9266 52.828 60.2911 56.6995 60.2524 57.4284C60.2137 58.1591 58.7013 56.9196 57.7594 56.4214C56.8175 55.9231 56.3298 55.8932 56.3456 55.5816C56.3632 55.2699 56.1431 52.8509 56.6044 52.8368Z" fill="#262C45"/>
<path d="M44.5056 30.1074C44.745 30.5845 45.7556 31.6074 45.1922 31.8575C44.6288 32.1075 43.6922 32.0441 43.6922 31.7941C43.6939 31.5441 44.3806 29.8574 44.5056 30.1074Z" fill="#262C45"/>
<path d="M15.7672 68.7579C16.0208 68.8865 15.9609 70.6453 15.9503 71.2615C15.9415 71.8777 14.9838 75.4869 14.0929 75.3479C13.2038 75.207 12.8605 74.5591 12.6897 74.1876C12.5189 73.8161 11.4186 73.1383 11.2495 72.795C11.0805 72.4499 12.8006 69.7386 13.107 69.5449C13.4116 69.3495 13.6052 68.6488 14.1316 68.4745C14.3482 68.404 15.6158 68.6805 15.7672 68.7579Z" fill="#262C45"/>
<path d="M12.982 69.2615C13.0119 69.059 12.6246 68.9058 12.4855 68.971C12.3482 69.0361 10.2143 70.515 9.99073 70.6981C9.29177 71.2668 8.0928 71.6365 8.18964 71.9534C8.40971 72.6788 9.82876 71.9253 10.5911 71.2985C11.3552 70.6717 12.901 69.8055 12.982 69.2615Z" fill="#262C45"/>
<path d="M10.7231 73.3249C10.9168 73.3566 11.2777 73.4411 11.232 73.8795C11.1897 74.3179 9.64917 77.9342 9.29881 78.2898C8.94845 78.6472 8.72309 78.2317 8.83401 77.6225C8.94669 77.0151 10.5031 73.2897 10.7231 73.3249Z" fill="#262C45"/>
<path d="M11.7566 74.2704C11.9151 74.4042 12.1158 74.6471 12.2232 74.9376C12.3288 75.2281 10.3957 79.9395 10.1069 80.0469C9.81467 80.1525 9.57523 79.9008 9.59283 79.4641C9.60868 79.0275 11.5806 74.1207 11.7566 74.2704Z" fill="#262C45"/>
<path d="M12.6932 75.2264C12.9204 75.3162 13.0964 75.4905 13.1193 75.7616C13.1422 76.031 11.8235 79.9818 11.1879 79.8744C10.5523 79.7652 11.2161 78.6191 11.3024 78.3673C11.3904 78.1138 12.5806 75.1806 12.6932 75.2264Z" fill="#262C45"/>
<path d="M14.4732 75.8056C14.5102 75.5785 13.894 76.0186 13.776 76.2458C13.6598 76.4746 12.82 78.6472 13.0084 78.7071C13.6792 78.9201 14.313 76.7986 14.4732 75.8056Z" fill="#262C45"/>
<path d="M25.903 52.8368C25.5808 52.828 22.2181 56.6995 22.2551 57.4284C22.2938 58.1591 23.8062 56.9196 24.7463 56.4214C25.6882 55.9231 26.1759 55.8932 26.1601 55.5816C26.1442 55.2699 26.3625 52.8509 25.903 52.8368Z" fill="#262C45"/>
<path d="M38.0019 30.1074C37.7625 30.5845 36.7519 31.6074 37.3135 31.8575C37.8769 32.1075 38.8135 32.0441 38.8135 31.7941C38.8135 31.5441 38.1269 29.8574 38.0019 30.1074Z" fill="#262C45"/>
<path d="M31.1162 43.0496C31.5264 43.5373 32.8539 45.0479 32.8539 45.4106C32.8539 45.7116 32.912 48.2486 32.6338 47.9476C32.2447 47.5286 32.3011 46.2592 31.9754 45.4651C31.6074 44.5655 31.2271 44.1376 31.1162 43.0496Z" fill="#262C45"/>
<path d="M44.6728 102.486C44.7503 106.139 46.7257 108.271 46.1588 112.43C46.1623 109.974 43.5513 108.729 44.6728 102.486Z" fill="#262C45"/>
<path d="M49.7768 103.016C49.9018 102.503 49.2099 108.428 49.224 108.958C49.2381 109.488 47.5461 109.954 47.0972 110.542C47.0373 110.113 47.4035 108.982 47.4951 108.579C47.5866 108.176 49.1553 105.546 49.7768 103.016Z" fill="#262C45"/>
<path d="M45.6271 103.419C45.6165 102.59 46.3295 102.318 47.1236 102.308C47.9159 102.297 48.4898 102.551 48.5021 103.38C48.5109 104.077 47.025 107.672 46.7591 107.283C46.5144 106.926 45.9757 105.195 45.8313 104.308C45.7063 103.995 45.6306 103.678 45.6271 103.419Z" fill="#262C45"/>
<path d="M37.8346 102.486C37.7572 106.139 35.7818 108.271 36.3469 112.43C36.3452 109.974 38.9562 108.729 37.8346 102.486Z" fill="#262C45"/>
<path d="M32.7307 103.016C32.6057 102.503 33.2976 108.428 33.2835 108.958C33.2694 109.488 34.9613 109.954 35.4103 110.542C35.4702 110.113 35.104 108.982 35.0124 108.579C34.9208 108.176 33.3522 105.546 32.7307 103.016Z" fill="#262C45"/>
<path d="M36.8786 103.419C36.8892 102.59 36.1762 102.318 35.3839 102.308C34.5899 102.297 34.0159 102.551 34.0053 103.38C33.9965 104.077 35.4825 107.672 35.7483 107.283C35.9931 106.926 36.5318 105.195 36.6762 104.308C36.8012 103.995 36.8751 103.678 36.8786 103.419Z" fill="#262C45"/>
<path d="M57.2646 51.2962C57.2206 51.2962 57.1766 51.2857 57.1379 51.2593C55.2558 50.0709 53.8719 47.6905 53.3526 46.7944L53.2681 46.6465C53.2012 46.5338 53.085 45.2697 53.1959 45.2028C53.3068 45.1359 53.4529 45.1746 53.5181 45.2873L53.6061 45.4369C54.1114 46.3049 55.6061 49.7328 57.3914 50.8596C57.5005 50.93 57.534 51.0744 57.4653 51.1853C57.4178 51.2575 57.3421 51.2962 57.2646 51.2962Z" fill="#262C45"/>
<path d="M47.3683 44.9053C47.15 45.1183 47.5602 45.8859 47.8067 45.812C48.025 45.7468 49.68 44.8331 49.5691 44.3929C49.474 44.0144 47.4158 44.8577 47.3683 44.9053Z" fill="#262C45"/>
<path d="M51.3913 43.0496C50.9811 43.5373 49.6536 45.0479 49.6536 45.4106C49.6536 45.7116 49.5955 48.2486 49.8736 47.9476C50.261 47.5286 50.2064 46.2592 50.5304 45.4651C50.9001 44.5655 51.2804 44.1376 51.3913 43.0496Z" fill="#262C45"/>
<path d="M25.2428 51.2962C25.2868 51.2962 25.3308 51.2857 25.3696 51.2593C27.2517 50.0709 28.6355 47.6905 29.1566 46.7944L29.2429 46.6465C29.3098 46.5338 29.426 45.2697 29.3151 45.2028C29.2024 45.1359 29.058 45.1746 28.9929 45.2873L28.9049 45.4369C28.4013 46.3049 26.9048 49.7328 25.1196 50.8596C25.0104 50.93 24.977 51.0744 25.0456 51.1853C25.0879 51.2575 25.1653 51.2962 25.2428 51.2962Z" fill="#262C45"/>
<path d="M35.1392 44.9053C35.3575 45.1183 34.9472 45.8859 34.7008 45.812C34.4825 45.7468 32.8275 44.8331 32.9384 44.3929C33.0335 44.0144 35.0916 44.8577 35.1392 44.9053Z" fill="#262C45"/>
<path d="M46.7679 68.7632C46.4211 69.1206 44.1605 71.0467 44.2063 71.3759C44.2749 71.8689 45.6147 75.1225 46.113 75.4253C46.6112 75.7264 46.5144 73.5221 46.9862 72.3126C47.4898 71.0203 50.4916 64.1504 50.4898 63.9761C50.4881 63.8405 48.1113 67.3794 46.7679 68.7632Z" fill="#262C45"/>
<path d="M35.7395 68.7632C36.0864 69.1206 38.347 71.0467 38.3012 71.3759C38.2325 71.8689 36.8927 75.1225 36.3945 75.4253C35.8962 75.7264 35.993 73.5221 35.5212 72.3126C35.0177 71.0203 32.0158 64.1504 32.0176 63.9761C32.0211 63.8405 34.3962 67.3794 35.7395 68.7632Z" fill="#262C45"/>
<path d="M57.5094 57.1397C57.5094 57.1397 57.5375 57.1855 57.5904 57.2735C57.6485 57.3562 57.7083 57.5006 57.821 57.6467C57.9302 57.7964 58.0552 57.9795 58.1907 58.189C58.3192 58.3985 58.5147 58.6256 58.6837 58.888C59.0252 59.4179 59.4795 59.9901 59.9161 60.6433C60.1239 60.9796 60.3774 61.2929 60.6063 61.638C60.8457 61.9725 61.0728 62.3299 61.3316 62.6557C61.8633 63.2912 62.351 63.9796 62.888 64.5325C63.1521 64.8159 63.4056 65.0906 63.6486 65.3494C63.8916 65.6082 64.1099 65.8723 64.344 66.0659C65.2543 66.8917 65.9884 67.6804 65.9884 67.6804C66.0025 67.691 66.006 67.7121 65.9972 67.7279C65.9884 67.7438 65.8846 67.7139 65.955 67.7368C65.955 67.7368 65.1821 67.0008 64.212 66.2561C63.962 66.08 63.7261 65.8353 63.4637 65.5976C63.2049 65.3529 62.932 65.0958 62.6503 64.8282C62.0764 64.3018 61.5482 63.6416 60.9742 63.0307C60.6908 62.7208 60.4373 62.3792 60.1714 62.0606C59.9108 61.7349 59.645 61.4232 59.4196 61.0905C58.9742 60.4214 58.5798 59.7806 58.284 59.1978C57.983 58.6292 57.7559 58.101 57.622 57.74C57.4918 57.3809 57.4513 57.1626 57.4513 57.1626C57.4477 57.1432 57.4583 57.1256 57.4742 57.1203C57.49 57.1203 57.5023 57.1291 57.5094 57.1397Z" fill="#262C45"/>
<path d="M47.9933 46.3789C47.893 46.5814 47.6958 47.5937 48.1483 47.518C48.6007 47.4423 49.5779 46.3595 49.5215 46.0162C49.4599 45.6218 48.069 46.2275 47.9933 46.3789Z" fill="#262C45"/>
<path d="M24.9981 57.1397C24.9981 57.1397 24.9699 57.1855 24.9153 57.2735C24.8572 57.3562 24.7974 57.5006 24.6847 57.6467C24.5755 57.7964 24.4505 57.9795 24.315 58.189C24.1865 58.3985 23.9928 58.6256 23.822 58.888C23.4805 59.4179 23.0262 59.9901 22.5896 60.6433C22.3818 60.9796 22.1283 61.2929 21.8994 61.638C21.66 61.9725 21.4329 62.3299 21.1741 62.6557C20.6424 63.2912 20.1547 63.9796 19.6177 64.5325C19.3536 64.8159 19.0983 65.0906 18.8589 65.3494C18.6159 65.6082 18.3976 65.8723 18.1634 66.0659C17.2532 66.8917 16.519 67.6804 16.519 67.6804C16.505 67.691 16.5014 67.7121 16.5102 67.7279C16.519 67.7438 16.6229 67.7139 16.5542 67.7368C16.5542 67.7368 17.3272 67.0008 18.2972 66.2561C18.549 66.08 18.7832 65.8353 19.0455 65.5976C19.3043 65.3529 19.5772 65.0958 19.8589 64.8282C20.4329 64.3018 20.961 63.6416 21.5332 63.0307C21.8167 62.7208 22.0702 62.3792 22.3361 62.0606C22.5949 61.7349 22.8625 61.4232 23.0878 61.0905C23.5333 60.4214 23.9276 59.7806 24.2234 59.1978C24.5245 58.6292 24.7516 58.101 24.8854 57.74C25.0157 57.3809 25.0562 57.1626 25.0562 57.1626C25.0597 57.1432 25.0491 57.1256 25.0333 57.1203C25.0175 57.1203 25.0051 57.1291 24.9981 57.1397Z" fill="#262C45"/>
<path d="M34.5142 46.3789C34.6145 46.5814 34.8117 47.5937 34.3592 47.518C33.9068 47.4423 32.9314 46.3595 32.986 46.0162C33.0493 45.6218 34.4385 46.2275 34.5142 46.3789Z" fill="#262C45"/>
<path d="M42.296 26.6267C41.4474 26.7922 40.4368 26.6601 40.3734 26.6461C39.9227 26.5457 41.3259 29.7799 41.3259 29.7799L41.3365 29.7289L41.3435 29.7606C41.3417 29.7588 42.7203 26.5422 42.296 26.6267Z" fill="#262C45"/>
<path opacity="0.7" d="M52.2945 29.6936C53.5586 29.7464 54.7153 29.6936 56.1889 31.0088C57.1256 31.845 57.5569 34.6937 57.1362 36.9033C56.5569 34.7993 54.7681 31.4295 52.2945 29.6936Z" fill="#FFCAA4"/>
<path opacity="0.7" d="M49.9793 30.1162C52.2417 30.4313 55.9883 35.486 56.3034 38.3276C51.8966 38.5688 50.0815 34.6163 49.9793 30.1162Z" fill="#FFCAA4"/>
<path d="M42.0725 33.5247C42.3753 33.3169 44.5919 32.3944 48.0075 33.9613C51.2945 35.4702 52.2945 41.6921 52.2505 41.8224C52.1924 42.0002 46.9229 44.9352 44.1623 44.9352C42.5513 44.9352 41.7274 43.6746 41.7274 43.201C41.7274 42.7274 41.7274 33.7624 42.0725 33.5247Z" fill="#EEE5E0" fill-opacity="0.4"/>
<path d="M53.6836 39.7484C54.0622 39.6657 55.7875 39.8875 56.4953 40.4491C58.5182 42.0548 58.4161 45.6376 58.432 46.5602C58.4496 47.4827 59.219 49.5338 57.9566 49.5567C56.6943 49.5796 53.784 45.2802 53.4688 43.9756C53.1537 42.671 52.7171 39.9597 53.6836 39.7484Z" fill="#EEE5E0" fill-opacity="0.4"/>
<path d="M58.2383 50.2099C58.5711 54.5163 59.5711 54.8315 59.7929 55.6097C60.256 57.2294 63.5448 61.4214 64.4955 62.7648C65.5976 64.3247 66.8036 67.3335 67.1681 67.3951C67.5343 67.4568 65.0342 62.4285 64.8494 61.9531C64.0853 59.9707 62.4268 52.2064 58.2383 50.2099Z" fill="#EEE5E0" fill-opacity="0.4"/>
<path d="M58.5042 57.902C60.9848 58.1098 66.4057 67.1769 66.4938 67.8617C65.3863 66.3987 61.6908 62.2718 61.388 61.8845C60.7753 61.1028 59.0218 58.7559 58.5042 57.902Z" fill="#EEE5E0" fill-opacity="0.4"/>
<path d="M45.1412 28.132C45.8472 28.132 49.2469 30.0792 49.6149 30.4471C49.9828 30.8151 47.5092 30.9208 47.2997 30.9208C47.0884 30.9208 45.4053 29.4471 45.1412 29.0263C44.8789 28.6056 44.7732 28.132 45.1412 28.132Z" fill="#EEE5E0" fill-opacity="0.4"/>
<path d="M42.5672 45.7538C41.8524 45.8683 42.4475 48.1236 42.5073 48.4194C42.5672 48.7152 46.3578 48.7152 47.0092 49.9C47.6606 51.0849 47.187 48.5972 47.187 48.1236C47.1888 47.6482 45.5285 45.2802 42.5672 45.7538Z" fill="#EEE5E0" fill-opacity="0.4"/>
<path d="M42.3894 49.363C42.0425 49.444 42.3894 52.3244 42.6271 53.2733C42.6904 53.5304 46.7134 52.9776 47.011 53.8068C47.3067 52.9776 47.3666 52.3261 47.3666 51.8525C47.3666 51.3772 45.4106 48.6518 42.3894 49.363Z" fill="#EEE5E0" fill-opacity="0.4"/>
<path d="M42.5091 54.2259C42.2151 54.5199 42.3911 58.0164 42.4492 58.2541C42.5091 58.4918 43.812 57.7207 44.4035 57.6626C44.9968 57.6027 47.0092 57.7805 47.2469 57.4249C47.4828 57.0692 47.6025 55.2329 47.1272 54.6414C46.6553 54.048 43.6341 53.1008 42.5091 54.2259Z" fill="#EEE5E0" fill-opacity="0.4"/>
<path d="M44.282 58.6485C43.6869 59.0798 42.6499 59.4178 42.4527 60.2453C42.2573 61.0728 42.1253 69.0589 42.1253 69.6505C42.1253 70.242 42.583 70.7737 43.3665 70.7737C44.15 70.7737 44.9352 68.999 45.2609 68.0518C45.5866 67.1046 46.3067 64.2665 46.437 63.4373C46.5673 62.608 47.6131 58.7647 47.025 58.409C46.437 58.0569 44.9352 58.1749 44.282 58.6485Z" fill="#EEE5E0" fill-opacity="0.4"/>
<path d="M48.0779 53.1554C48.0303 53.9371 47.6677 61.8422 47.5145 62.4971C47.3613 63.1503 47.6677 64.263 48.0268 64.1979C48.386 64.1327 49.5427 63.7225 49.6448 63.0042C49.7469 62.2859 49.6994 57.7946 49.6994 56.9442C49.6994 56.0956 49.6818 52.0638 49.4265 51.8684C49.1695 51.6694 48.1289 52.305 48.0779 53.1554Z" fill="#EEE5E0" fill-opacity="0.4"/>
<path d="M48.1043 50.1342C48.1043 50.1342 47.9916 51.3402 48.143 51.4916C48.2944 51.643 49.3103 50.7751 49.386 50.5497C49.4617 50.3226 49.9652 48.3683 49.6642 48.7451C49.3613 49.1219 49.1219 49.7574 48.1043 50.1342Z" fill="#EEE5E0" fill-opacity="0.4"/>
<path d="M48.261 48.1958C48.2223 48.4968 48.0726 49.4775 48.261 49.5162C48.4494 49.5532 49.3931 48.2081 49.5057 47.907C49.6184 47.606 49.555 47.3595 49.4424 47.4352C49.3297 47.5091 48.298 47.8947 48.261 48.1958Z" fill="#EEE5E0" fill-opacity="0.4"/>
<path d="M51.4318 63.4391C51.967 69.2456 44.0074 85.7336 43.2433 91.7232C43.039 77.5221 50.3262 70.316 51.4318 63.4391Z" fill="#FFCAA4"/>
<path d="M48.4018 78.1999C49.1378 76.6735 52.5357 64.7049 52.6185 65.0764C55.6062 78.3408 48.9494 91.4115 48.5814 93.114C48.2117 94.8165 48.4282 99.887 48.3701 100.347C48.3103 100.804 47.5268 100.75 47.2592 100.361C46.9916 99.9715 45.1025 85.0364 48.4018 78.1999Z" fill="#FFCAA4"/>
<path d="M53.7646 75.0239C53.3562 82.2705 50.3332 89.5101 49.7399 92.3359C49.3684 94.1 49.4089 97.6177 49.4212 98.5314C49.4336 99.4469 49.6378 100.097 49.9653 100.091C50.1378 100.09 52.821 91.32 53.1924 89.0647C54.9126 82.3533 54.1291 79.6243 53.7646 75.0239Z" fill="#FFCAA4"/>
<path d="M45.6588 85.6279C46.1782 85.3234 45.1113 92.0524 45.1887 92.9661C45.2662 93.8799 46.731 101.79 44.9634 101.553C43.1957 101.315 43.4299 95.8148 43.407 94.1845C43.3859 92.5506 45.2063 85.8938 45.6588 85.6279Z" fill="#FFCAA4"/>
<path d="M44.6606 110.433C44.4334 110.667 42.8559 120.535 42.8753 121.817C42.9369 125.877 45.1553 132.775 45.1676 133.691C45.1799 134.604 45.8454 130.8 45.9 129.949C45.9528 129.099 47.6113 116.583 44.6606 110.433Z" fill="#EEE5E0" fill-opacity="0.4"/>
<path d="M50.4564 114.453C50.4564 114.453 51.3896 118.953 50.8984 121.736C50.7593 122.521 48.1272 130.627 48.0321 131.152C47.937 131.677 46.4687 135.983 46.4071 135.17C46.3454 134.358 47.0338 132.548 47.1271 131.967C47.2222 131.384 48.2434 123.997 48.3842 123.182C48.5286 122.366 50.4564 114.453 50.4564 114.453Z" fill="#EEE5E0" fill-opacity="0.4"/>
<path d="M44.1394 25.8819C44.4563 25.8819 44.2468 27.8802 44.194 28.2481C44.1412 28.6161 41.826 32.8803 41.6675 33.1954C41.5091 33.5106 41.2467 31.301 41.5091 30.8802C41.7732 30.4612 43.9281 25.8819 44.1394 25.8819Z" fill="#EEE5E0" fill-opacity="0.4"/>
<path opacity="0.7" d="M30.213 29.6936C28.9489 29.7464 27.7922 29.6936 26.3168 31.0088C25.3802 31.845 24.9488 34.6937 25.3696 36.9033C25.9489 34.7993 27.7394 31.4295 30.213 29.6936Z" fill="#FFCAA4"/>
<path opacity="0.7" d="M32.5282 30.1162C30.2659 30.4313 26.5193 35.486 26.2042 38.3276C30.611 38.5688 32.4261 34.6163 32.5282 30.1162Z" fill="#FFCAA4"/>
<path d="M40.4351 33.5247C40.1323 33.3169 37.9139 32.3944 34.5001 33.9613C31.2131 35.4702 30.213 41.6921 30.2553 41.8224C30.3134 42.0002 35.5829 44.9352 38.3435 44.9352C39.9562 44.9352 40.7326 43.4774 40.7326 43.002C40.7326 42.5284 40.7802 33.7624 40.4351 33.5247Z" fill="#EEE5E0" fill-opacity="0.4"/>
<path d="M28.8239 39.7484C28.4454 39.6657 26.72 39.8875 26.0122 40.4491C23.9893 42.0548 24.0914 45.6376 24.0756 46.5602C24.058 47.4827 23.2886 49.5338 24.5509 49.5567C25.8133 49.5796 28.7236 45.2802 29.0387 43.9756C29.3521 42.671 29.7905 39.9597 28.8239 39.7484Z" fill="#EEE5E0" fill-opacity="0.4"/>
<path d="M24.2693 50.2099C23.9365 54.5163 22.9365 54.8315 22.7147 55.6097C22.2516 57.2294 18.9628 61.4214 18.0121 62.7648C16.9099 64.3247 15.7057 67.3335 15.3395 67.3951C14.9733 67.4568 17.4733 62.4285 17.6564 61.9531C18.4223 59.9707 20.0808 52.2064 24.2693 50.2099Z" fill="#EEE5E0" fill-opacity="0.4"/>
<path d="M24.0034 57.902C21.5245 58.1098 16.1018 67.1769 16.0138 67.8617C17.1212 66.3987 20.8167 62.2718 21.1195 61.8845C21.7322 61.1028 23.4858 58.7559 24.0034 57.902Z" fill="#EEE5E0" fill-opacity="0.4"/>
<path d="M37.3664 28.132C36.6604 28.132 33.2606 30.0792 32.8927 30.4471C32.5247 30.8151 34.9983 30.9208 35.2079 30.9208C35.4191 30.9208 37.1023 29.4471 37.3664 29.0263C37.6287 28.6056 37.7343 28.132 37.3664 28.132Z" fill="#EEE5E0" fill-opacity="0.4"/>
<path d="M39.9404 45.7538C40.6552 45.8683 40.0583 48.1236 40.0002 48.4194C39.9404 48.7152 36.1498 48.7152 35.4984 49.9C34.847 51.0849 35.3206 48.5972 35.3206 48.1236C35.3188 47.6482 36.9773 45.2802 39.9404 45.7538Z" fill="#EEE5E0" fill-opacity="0.4"/>
<path d="M40.1182 49.363C40.465 49.444 40.1182 52.3244 39.8805 53.2733C39.8154 53.5304 35.7924 52.9776 35.4966 53.8068C35.2008 52.9776 35.141 52.3261 35.141 51.8525C35.141 51.3772 37.097 48.6518 40.1182 49.363Z" fill="#EEE5E0" fill-opacity="0.4"/>
<path d="M39.9985 54.2259C40.2925 54.5199 40.1182 58.0164 40.0583 58.2541C39.9985 58.4918 38.6956 57.7207 38.1041 57.6626C37.5108 57.6027 35.4966 57.7805 35.2607 57.4249C35.0248 57.0692 34.9051 55.2329 35.3804 54.6414C35.8523 54.048 38.8735 53.1008 39.9985 54.2259Z" fill="#EEE5E0" fill-opacity="0.4"/>
<path d="M38.2255 58.6485C38.8206 59.0798 39.8594 59.4178 40.0548 60.2453C40.2502 61.0728 40.3823 69.0589 40.3823 69.6505C40.3823 70.242 39.9245 70.7737 39.1411 70.7737C38.3576 70.7737 37.5741 68.999 37.2466 68.0518C36.9209 67.1046 36.2026 64.2665 36.0723 63.4373C35.9403 62.608 34.8962 58.7647 35.4843 58.409C36.0706 58.0569 37.5724 58.1749 38.2255 58.6485Z" fill="#EEE5E0" fill-opacity="0.4"/>
<path d="M34.4297 53.1554C34.4772 53.9371 34.8399 61.8422 34.9931 62.4971C35.1462 63.1503 34.8399 64.263 34.4807 64.1979C34.1216 64.1327 32.9649 63.7225 32.8627 63.0042C32.7606 62.2859 32.8082 57.7946 32.8082 56.9442C32.8082 56.0956 32.824 52.0638 33.0811 51.8684C33.3381 51.6694 34.3786 52.305 34.4297 53.1554Z" fill="#EEE5E0" fill-opacity="0.4"/>
<path d="M34.4033 50.1342C34.4033 50.1342 34.516 51.3402 34.3663 51.4916C34.2149 51.643 33.1973 50.7751 33.1216 50.5497C33.0459 50.3226 32.5423 48.3683 32.8434 48.7451C33.1444 49.1219 33.3856 49.7574 34.4033 50.1342Z" fill="#EEE5E0" fill-opacity="0.4"/>
<path d="M34.2466 48.1958C34.2836 48.4968 34.435 49.4775 34.2466 49.5162C34.0582 49.5532 33.1145 48.2081 33.0018 47.907C32.8892 47.606 32.9525 47.3595 33.0652 47.4352C33.1779 47.5091 34.2079 47.8947 34.2466 48.1958Z" fill="#EEE5E0" fill-opacity="0.4"/>
<path d="M31.0757 63.4391C30.5405 69.2456 38.5002 85.7336 39.2643 91.7232C39.4685 77.5221 32.1814 70.316 31.0757 63.4391Z" fill="#FFCAA4"/>
<path d="M34.1057 78.1999C33.3681 76.6735 29.9719 64.7049 29.8891 65.0764C26.8996 78.3408 33.5564 91.4115 33.9262 93.114C34.2959 94.8165 34.0793 99.887 34.1374 100.347C34.1973 100.804 34.9808 100.75 35.2484 100.361C35.516 99.9715 37.4051 85.0364 34.1057 78.1999Z" fill="#FFCAA4"/>
<path d="M28.7429 75.0239C29.1532 82.2705 32.1744 89.5101 32.7659 92.3359C33.1374 94.1 33.0969 97.6177 33.0846 98.5314C33.0723 99.4469 32.868 100.097 32.5423 100.091C32.3715 100.09 29.6866 91.32 29.3151 89.0647C27.5968 82.3533 28.3785 79.6243 28.7429 75.0239Z" fill="#FFCAA4"/>
<path d="M36.8487 85.6279C36.3294 85.3234 37.3963 92.0524 37.3188 92.9661C37.2414 93.8799 35.7765 101.79 37.5442 101.553C39.3118 101.315 39.0777 95.8148 39.1006 94.1845C39.1217 92.5506 37.3012 85.8938 36.8487 85.6279Z" fill="#FFCAA4"/>
<path d="M37.847 110.433C38.0759 110.667 39.6516 120.535 39.6323 121.817C39.5707 125.877 37.3505 132.775 37.34 133.691C37.3276 134.604 36.6621 130.8 36.6093 129.949C36.5547 129.099 34.8963 116.583 37.847 110.433Z" fill="#EEE5E0" fill-opacity="0.4"/>
<path d="M32.0511 114.453C32.0511 114.453 31.1162 118.953 31.6092 121.736C31.7483 122.521 34.3804 130.627 34.4755 131.152C34.5705 131.677 36.0389 135.983 36.1005 135.17C36.1621 134.358 35.4737 132.548 35.3804 131.967C35.2853 131.384 34.2642 123.997 34.1233 123.182C33.979 122.366 32.0511 114.453 32.0511 114.453Z" fill="#EEE5E0" fill-opacity="0.4"/>
<path d="M38.3682 25.8819C38.053 25.8819 38.2608 27.8802 38.3136 28.2481C38.3664 28.6161 40.6816 32.8803 40.84 33.1954C40.9985 33.5106 41.2608 31.301 40.9985 30.8802C40.7344 30.4612 38.5777 25.8819 38.3682 25.8819Z" fill="#EEE5E0" fill-opacity="0.4"/>
<path d="M39.59 72.5115C39.7942 72.9446 39.3981 79.1067 38.7044 80.693C38.0107 82.281 38.2537 79.5169 38.1586 78.9306C38.0618 78.3443 37.2466 77.376 37.6181 76.6894C37.9914 76.0027 39.5389 72.4041 39.59 72.5115Z" fill="#EEE5E0" fill-opacity="0.4"/>
<path d="M42.9176 72.5115C42.7133 72.9446 43.1095 79.1067 43.8031 80.693C44.4968 82.281 44.2539 79.5169 44.3489 78.9306C44.444 78.3443 45.2592 77.376 44.8894 76.6894C44.5162 76.0027 42.9686 72.4041 42.9176 72.5115Z" fill="#EEE5E0" fill-opacity="0.4"/>
</svg>
