<svg width="44" height="44" viewBox="0 0 44 44" fill="none" xmlns="http://www.w3.org/2000/svg">
<rect width="44" height="44" rx="11" fill="white" fill-opacity="0.75"/>
<path d="M34.432 23.0228C33.361 21.9518 32.8106 22.6815 32.8106 22.6815L23.7651 31.727C23.0611 32.431 21.9091 32.431 21.2051 31.727C20.501 31.023 20.501 29.8709 21.2051 29.1669L32.4693 17.9027C34.2357 16.1363 34.2357 13.269 32.4693 11.5026C30.7029 9.73612 27.8356 9.73612 26.0692 11.5026L14.8049 22.7668C14.1009 23.4708 12.9489 23.4708 12.2449 22.7668C11.5409 22.0628 11.5409 20.9108 12.2449 20.2067C12.4198 20.0318 12.4198 19.7417 12.2449 19.5667C12.0699 19.3918 11.7798 19.3918 11.6049 19.5667C10.5467 20.6249 10.5467 22.3486 11.6049 23.4068C12.663 24.465 14.3868 24.465 15.4449 23.4068L26.7092 12.1426C28.1215 10.7303 30.417 10.7303 31.8293 12.1426C33.2416 13.5549 33.2416 15.8504 31.8293 17.2627L20.565 28.5269C19.5069 29.5851 19.5069 31.3088 20.565 32.367C21.6232 33.4252 23.347 33.4252 24.4051 32.367L33.4507 23.3215L34.0907 23.9615L25.0451 33.007C23.6328 34.4193 21.3373 34.4193 19.925 33.007C18.5127 31.5947 18.5127 29.2992 19.925 27.8869L31.1893 16.6227C32.2474 15.5645 32.2474 13.8407 31.1893 12.7826C30.1311 11.7244 28.4073 11.7244 27.3492 12.7826L16.0849 24.0468C14.6727 25.4591 12.3771 25.4591 10.9648 24.0468C9.55255 22.6345 9.55255 20.339 10.9648 18.9267L20.0104 9.88119L20.6504 10.5212L12.8849 18.2867C12.7099 18.4616 12.7099 18.7518 12.8849 18.9267C13.0598 19.1017 13.35 19.1017 13.5249 18.9267L21.2904 11.1612C21.2904 11.1612 21.8877 10.4785 20.9491 9.53985C20.0104 8.60116 19.3704 9.24117 19.3704 9.24117L10.3248 18.2867C8.55839 20.0531 8.55839 22.9204 10.3248 24.6868C12.0913 26.4533 14.9585 26.4533 16.725 24.6868L27.9892 13.4226C28.6932 12.7186 29.8452 12.7186 30.5493 13.4226C31.2533 14.1266 31.2533 15.2786 30.5493 15.9827L19.285 27.2469C17.5186 29.0133 17.5186 31.8806 19.285 33.647C21.0515 35.4135 23.9187 35.4135 25.6852 33.647L34.7307 24.6015C34.7307 24.6015 35.503 24.0938 34.432 23.0228Z" fill="#262C45"/>
</svg>
