<svg width="44" height="44" viewBox="0 0 44 44" fill="none" xmlns="http://www.w3.org/2000/svg">
<rect width="44" height="44" rx="11" fill="white" fill-opacity="0.75"/>
<path d="M27.5067 10.4081C27.7391 10.4051 27.9712 10.426 28.1993 10.4705C28.8226 10.5999 29.2175 10.9816 29.3776 11.5966C29.4277 11.7936 29.4523 11.9962 29.4508 12.1994C29.4508 14.7239 29.4508 17.2484 29.4508 19.7729C29.4508 19.8217 29.4508 19.8705 29.4508 19.9193C29.4508 20.0658 29.3854 20.1473 29.2341 20.1473H29.2072C29.1472 20.1517 29.095 20.1541 29.0506 20.1541C28.8026 20.1541 28.7733 20.076 28.7733 19.7407C28.7733 17.2569 28.7733 14.773 28.7733 12.2892C28.7779 12.1104 28.7615 11.9317 28.7245 11.7567C28.6484 11.4341 28.4516 11.2291 28.129 11.1505C27.9635 11.1097 27.7938 11.0887 27.6233 11.088C23.8734 11.088 20.1231 11.0888 16.3725 11.0904C16.1941 11.083 16.0156 11.098 15.8409 11.1349C15.5544 11.21 15.3767 11.4209 15.2894 11.6996C15.2404 11.8802 15.2194 12.0672 15.2269 12.2541C15.2269 14.7138 15.2269 17.1732 15.2269 19.6323V19.7299C15.2269 20.0643 15.1839 20.16 14.9457 20.16C14.8819 20.1592 14.8182 20.1549 14.7549 20.1473C14.6143 20.1326 14.5508 20.0658 14.5499 19.9291C14.5499 19.8564 14.5499 19.7826 14.5499 19.7099C14.5499 17.2342 14.5499 14.7586 14.5499 12.2829C14.5494 12.0799 14.5679 11.8772 14.605 11.6776C14.7271 11.0172 15.2215 10.5496 15.8873 10.4574C16.1184 10.4248 16.3514 10.4084 16.5848 10.4086H16.5906C17.5467 10.4086 18.503 10.4086 19.4597 10.4086H24.6171C25.5767 10.4086 26.5366 10.4086 27.4969 10.4086H27.5062L27.5067 10.4081ZM27.5062 9.82283H27.4954C26.4421 9.82283 25.4039 9.82283 24.6156 9.82283H19.4563C18.5 9.82283 17.5438 9.82283 16.5877 9.82283H16.5814C16.3201 9.8217 16.0592 9.83916 15.8004 9.87505C15.3624 9.93184 14.9539 10.127 14.6345 10.4321C14.3151 10.7372 14.1015 11.1363 14.0247 11.5712C13.9814 11.8063 13.96 12.0449 13.9607 12.2839C13.9607 14.1592 13.9607 16.0662 13.9607 17.9108V19.7104C13.9607 19.7543 13.9607 19.7978 13.9607 19.8417C13.9607 19.872 13.9607 19.9027 13.9607 19.933C13.9632 20.3723 14.2492 20.6837 14.6895 20.7306C14.7734 20.7401 14.8578 20.7454 14.9423 20.7462C15.3572 20.7462 15.5676 20.5456 15.6711 20.3777C15.7975 20.1717 15.8087 19.9384 15.8092 19.7319V18.1548C15.8092 16.1884 15.8092 14.2215 15.8092 12.2541C15.8033 12.1268 15.8153 11.9993 15.8448 11.8753C15.8936 11.7289 15.9527 11.7108 15.9859 11.702C16.1115 11.6796 16.2392 11.6711 16.3666 11.6767H16.3695C18.7456 11.6767 21.1618 11.6767 23.4959 11.6767H27.6175C27.7415 11.6772 27.8651 11.6926 27.9855 11.7225C28.0831 11.7465 28.1207 11.7748 28.149 11.8944C28.1745 12.0252 28.185 12.1585 28.1803 12.2917C28.1803 14.7755 28.1803 17.2595 28.1803 19.7436C28.1803 19.9686 28.1905 20.1868 28.3145 20.3859C28.4609 20.6227 28.705 20.7428 29.0432 20.7428C29.096 20.7428 29.155 20.7428 29.2341 20.7349C29.3396 20.7371 29.4445 20.7181 29.5425 20.6789C29.6405 20.6397 29.7297 20.5813 29.8047 20.507C29.8802 20.4288 29.9391 20.3361 29.9777 20.2345C30.0163 20.1329 30.0338 20.0245 30.0292 19.9159C30.0292 19.8949 30.0292 19.8739 30.0292 19.8524C30.0292 19.831 30.0292 19.8012 30.0292 19.7753V17.9879C30.0292 16.0911 30.0292 14.1289 30.0292 12.1999C30.0307 11.9468 29.9997 11.6945 29.937 11.4492C29.7212 10.6194 29.1438 10.0698 28.3111 9.89702C28.0438 9.84436 27.7718 9.81934 27.4994 9.82234L27.5062 9.82283Z" fill="#262C45"/>
<path d="M13.1881 19.2809C13.2523 19.2826 13.3142 19.3058 13.3638 19.3468C13.4 19.3791 13.4461 19.3982 13.4946 19.401C13.5409 19.3982 13.5855 19.3826 13.6234 19.3561C13.688 19.313 13.7631 19.2885 13.8407 19.2853C13.991 19.2853 14.0954 19.4058 14.0998 19.6191C14.1076 19.9833 14.1281 20.3513 14.073 20.7125C14.0585 20.8421 14.0536 20.9726 14.0583 21.103C14.0583 21.7863 14.0583 22.4663 14.0583 23.1482C14.0583 23.5699 14.136 23.9882 14.1072 24.4114C14.1023 24.4841 14.1072 24.5578 14.1003 24.63C14.0784 24.8082 13.9783 24.9131 13.8426 24.9131C13.78 24.9111 13.719 24.893 13.6654 24.8604C13.615 24.8272 13.5568 24.8075 13.4965 24.8033C13.4384 24.8059 13.383 24.8287 13.3399 24.8678C13.2983 24.9011 13.2467 24.9195 13.1934 24.92C13.1222 24.918 13.0547 24.888 13.0055 24.8365C12.9789 24.8024 12.94 24.7799 12.8971 24.774C12.8567 24.7783 12.8188 24.7954 12.7888 24.8228C12.7263 24.8758 12.648 24.9067 12.5662 24.9107C12.4251 24.9107 12.3221 24.7911 12.3109 24.5842C12.2987 24.3006 12.307 24.0165 12.306 23.7324C12.306 23.5943 12.3095 23.4562 12.3031 23.3185C12.2943 23.1262 12.2606 23.094 12.0761 23.0745C11.7808 23.0408 11.7764 23.0354 11.7725 22.7328C11.7662 22.2935 11.7662 22.2935 11.3191 22.2935H9.95434C9.88943 22.2935 9.82451 22.2935 9.7591 22.2876C9.64293 22.2793 9.5824 22.2168 9.58338 22.0987C9.58436 21.9806 9.64879 21.9157 9.76349 21.9142C9.89235 21.9142 10.0217 21.9142 10.1506 21.9142H10.667V21.9084C10.8373 21.9084 11.0087 21.9084 11.1775 21.9084C11.2913 21.9084 11.405 21.9084 11.5192 21.9049C11.7208 21.9006 11.7594 21.8561 11.7701 21.6609C11.776 21.5555 11.7745 21.45 11.7755 21.3446C11.7755 21.206 11.8453 21.145 11.9839 21.1298C12.3046 21.0947 12.3051 21.0898 12.306 20.7555C12.306 20.4309 12.306 20.1063 12.306 19.7817C12.306 19.7168 12.306 19.6514 12.3114 19.5864C12.3314 19.3985 12.4378 19.2877 12.5725 19.2877C12.6462 19.2907 12.7169 19.3174 12.7741 19.3639C12.8088 19.397 12.8527 19.4188 12.9001 19.4263C12.9218 19.4235 12.9428 19.4163 12.9616 19.4051C12.9805 19.394 12.9969 19.3791 13.0099 19.3614C13.0328 19.3365 13.0606 19.3166 13.0914 19.3027C13.1223 19.2889 13.1557 19.2814 13.1895 19.2809H13.1881ZM13.1895 18.6952C13.0829 18.6953 12.9773 18.7162 12.8786 18.7567C12.7808 18.7196 12.6771 18.7005 12.5725 18.7C12.1279 18.7 11.7808 19.0378 11.7291 19.5215C11.722 19.596 11.719 19.6708 11.7203 19.7456V20.1756C11.7203 20.3127 11.7203 20.4504 11.7203 20.5875C11.3996 20.694 11.1985 20.9649 11.1897 21.3197H10.0813V21.3251C9.95922 21.3251 9.85477 21.3251 9.75764 21.3251C9.55858 21.3288 9.36864 21.4092 9.22741 21.5495C9.08619 21.6899 9.00459 21.8793 8.99962 22.0783C8.99464 22.2773 9.06669 22.4706 9.20072 22.6178C9.33476 22.765 9.52045 22.8548 9.71908 22.8685C9.80547 22.8748 9.8865 22.8758 9.95434 22.8758H11.1893C11.1985 23.0466 11.2317 23.2272 11.3757 23.3898C11.4666 23.4923 11.5853 23.5662 11.7174 23.6026C11.7174 23.646 11.7174 23.69 11.7174 23.7334C11.7174 23.8188 11.7174 23.9042 11.7174 23.9897C11.7174 24.1903 11.7174 24.3977 11.7237 24.6086C11.7462 25.1225 12.0996 25.4955 12.5643 25.4955C12.67 25.495 12.7748 25.4757 12.8737 25.4384C12.9744 25.4804 13.0824 25.5022 13.1915 25.5023C13.3035 25.5025 13.4144 25.4794 13.517 25.4344C13.6199 25.4748 13.7292 25.496 13.8397 25.4969C14.276 25.4969 14.6206 25.1689 14.6787 24.6994C14.6859 24.6345 14.689 24.5693 14.688 24.5041C14.688 24.4836 14.688 24.4617 14.688 24.4509C14.7019 24.1787 14.6949 23.9059 14.667 23.6348C14.6538 23.464 14.6411 23.3029 14.6416 23.1467V22.2193C14.6416 21.847 14.6416 21.4746 14.6416 21.102V21.0268C14.6391 20.9514 14.6417 20.8759 14.6494 20.8008C14.7046 20.4382 14.6953 20.0941 14.687 19.7622C14.687 19.7104 14.6841 19.6587 14.6831 19.6069C14.6704 19.0114 14.2487 18.6995 13.8382 18.6995C13.7261 18.6999 13.615 18.7206 13.5102 18.7606C13.4074 18.7176 13.2971 18.6953 13.1856 18.6952H13.1895Z" fill="#262C45"/>
<path d="M30.7931 19.2809C30.8643 19.2832 30.9328 19.3085 30.9883 19.3531C31.0203 19.381 31.0607 19.3973 31.1031 19.3995C31.147 19.3966 31.1893 19.382 31.2256 19.357C31.2895 19.3166 31.3628 19.2936 31.4384 19.2902C31.5848 19.2902 31.6824 19.4049 31.6868 19.6123C31.6995 20.0091 31.6902 20.4069 31.6937 20.8043C31.6937 21.0839 31.7098 21.0971 31.9934 21.1279C32.1837 21.1489 32.213 21.1767 32.2242 21.3685C32.2291 21.4574 32.2242 21.5467 32.2276 21.636C32.2374 21.862 32.273 21.902 32.5064 21.904C32.7397 21.9059 32.9637 21.9069 33.1926 21.9069H33.9907C34.0634 21.9069 34.1371 21.9069 34.2094 21.9103C34.3309 21.9137 34.4119 21.9625 34.4129 22.0982C34.4139 22.2339 34.3353 22.2871 34.2123 22.2881C34.0893 22.2891 33.9565 22.2881 33.8286 22.2881H33.3122V22.2901H32.8368C32.7359 22.2901 32.6349 22.2901 32.5337 22.2901C32.2628 22.2935 32.2325 22.3267 32.2267 22.6049C32.2267 22.6776 32.2267 22.7513 32.2267 22.8236C32.2154 23.0188 32.1871 23.0461 31.9987 23.0676C31.7059 23.1003 31.6976 23.1106 31.6956 23.4127C31.6956 23.7544 31.6956 24.0961 31.6956 24.4343C31.6981 24.5074 31.6946 24.5805 31.6854 24.653C31.6585 24.8126 31.5492 24.9127 31.4242 24.9127C31.3624 24.9113 31.3028 24.8893 31.2549 24.8502C31.2141 24.8111 31.1616 24.7866 31.1055 24.7804C31.0489 24.7872 30.9967 24.8147 30.9591 24.8575C30.9181 24.8954 30.8645 24.9165 30.8087 24.9166C30.7396 24.9148 30.6739 24.8865 30.6252 24.8375C30.5661 24.7814 30.5168 24.7501 30.4651 24.7501C30.4134 24.7501 30.3675 24.7775 30.3045 24.8385C30.2842 24.8602 30.2597 24.8777 30.2326 24.8898C30.2054 24.902 30.1761 24.9086 30.1464 24.9093C30.0273 24.9093 29.9174 24.7999 29.9052 24.6281C29.8812 24.345 29.8848 24.0602 29.916 23.7778C29.9189 23.7539 29.9267 23.729 29.9272 23.7061C29.9496 22.6283 29.976 21.5501 29.914 20.4728C29.8939 20.1736 29.8908 19.8734 29.9047 19.5737C29.9155 19.3902 30.0268 19.2809 30.1693 19.2809C30.2346 19.2826 30.2982 19.302 30.3533 19.337C30.3975 19.3688 30.4494 19.3882 30.5037 19.3931C30.5511 19.3908 30.5962 19.3718 30.6311 19.3394C30.678 19.3008 30.7367 19.2795 30.7975 19.2789L30.7931 19.2809ZM30.7975 18.6932C30.6906 18.6931 30.5848 18.7134 30.4856 18.7532C30.3843 18.7156 30.2773 18.6959 30.1693 18.6951C29.7061 18.6951 29.3488 19.0505 29.32 19.5401C29.3047 19.8618 29.3078 20.1842 29.3293 20.5055C29.3864 21.5364 29.3644 22.5971 29.3434 23.6221V23.6558C29.3434 23.6699 29.3381 23.687 29.3356 23.707C29.2998 24.0267 29.2953 24.3491 29.3219 24.6696C29.3551 25.1406 29.7124 25.4955 30.1473 25.4955C30.2571 25.4956 30.3657 25.4726 30.4661 25.4281C30.5734 25.4769 30.6899 25.5023 30.8077 25.5028C30.9141 25.5027 31.0195 25.4817 31.1177 25.4408C31.2153 25.4793 31.3193 25.499 31.4242 25.4989C31.844 25.4989 32.1891 25.1914 32.2628 24.7506C32.2772 24.6561 32.2834 24.5606 32.2813 24.4651V24.4377C32.2813 24.2913 32.2813 24.1449 32.2813 24.0014V23.608C32.6103 23.5103 32.7841 23.2663 32.8114 22.8758H33.9014C34.0073 22.8758 34.1137 22.8758 34.2196 22.8758C34.6755 22.8729 35.0045 22.5453 35.0006 22.0948C35.0006 21.6555 34.6809 21.3383 34.2289 21.3246C34.1532 21.3246 34.0742 21.3212 33.9931 21.3212H32.81C32.8026 21.2001 32.7826 20.9678 32.5991 20.7784C32.5112 20.6883 32.4014 20.6226 32.2804 20.588C32.2804 20.5138 32.2804 20.4416 32.2804 20.3664C32.2804 20.1151 32.2804 19.8554 32.274 19.5947C32.2555 19.009 31.8406 18.7054 31.4398 18.7054C31.3323 18.7059 31.2256 18.7251 31.1245 18.762C31.0199 18.7187 30.9078 18.6963 30.7946 18.6961L30.7975 18.6932Z" fill="#262C45"/>
<path d="M14.83 24.0799C14.9014 24.0816 14.9726 24.0886 15.0429 24.1009C15.1581 24.12 15.2171 24.1785 15.222 24.2923C15.2254 24.3816 15.2264 24.4709 15.2264 24.5598C15.2264 27.1955 15.2264 29.8313 15.2264 32.4671C15.2264 32.9064 15.2264 32.9064 15.6706 32.9157H15.6818C15.7164 32.9157 15.754 32.9122 15.7906 32.9122C15.8673 32.9122 15.9371 32.9264 15.9717 33.0128C16.032 33.174 16.03 33.3518 15.9664 33.5116C15.94 33.579 15.8648 33.5883 15.7989 33.5887H14.0232C13.8821 33.5887 13.8187 33.5102 13.8177 33.374C13.8177 33.3413 13.8177 33.3091 13.8177 33.2764C13.8138 32.9484 13.8426 32.9191 14.1745 32.9137C14.2233 32.9137 14.2721 32.9137 14.3209 32.9137C14.4674 32.9137 14.5479 32.8444 14.5479 32.6926C14.5479 32.6116 14.5479 32.53 14.5479 32.4485V24.5158C14.5479 24.1927 14.6045 24.0799 14.83 24.0799ZM14.8305 23.4942C14.4025 23.4942 14.196 23.7285 14.1067 23.8681C13.9798 24.0736 13.9602 24.3108 13.9602 24.5153V32.3387C13.7684 32.3503 13.5871 32.4303 13.4492 32.5642C13.2232 32.7946 13.2266 33.0894 13.2291 33.2847V33.3413C13.2291 33.3545 13.2291 33.3672 13.2291 33.3803C13.2334 33.8406 13.5658 34.175 14.0198 34.1755H15.798C16.2953 34.1755 16.4681 33.8309 16.5096 33.7254C16.6253 33.4312 16.6282 33.1046 16.5179 32.8083C16.4764 32.697 16.3031 32.3382 15.8097 32.328V28.9327C15.8097 27.4749 15.8097 26.0172 15.8097 24.5598C15.8097 24.446 15.8097 24.3533 15.8043 24.2669C15.7882 23.8764 15.5251 23.5835 15.1341 23.5225C15.0329 23.5047 14.9304 23.4951 14.8276 23.4937L14.8305 23.4942Z" fill="#262C45"/>
<path d="M29.1228 24.096C29.4186 24.096 29.4489 24.1307 29.4489 24.4421C29.4489 25.8049 29.4489 27.1675 29.4489 28.53V32.4232C29.4489 32.4959 29.4489 32.5696 29.4489 32.6423C29.4586 32.8688 29.4938 32.9025 29.7271 32.9122C29.7481 32.9122 29.7695 32.9122 29.7905 32.9122H29.873C30.1439 32.9191 30.1761 32.9523 30.18 33.2271C30.1844 33.557 30.1546 33.5888 29.8247 33.5902H29.0754C28.8304 33.5902 28.5854 33.5902 28.3404 33.5902C28.0138 33.5902 27.9845 33.557 27.9899 33.2232C27.9899 33.1827 27.9899 33.1421 27.9948 33.1016C27.9936 33.0771 27.9976 33.0525 28.0064 33.0296C28.0153 33.0067 28.0289 32.9858 28.0464 32.9685C28.0638 32.9512 28.0847 32.9377 28.1077 32.9289C28.1306 32.9201 28.1552 32.9163 28.1798 32.9176C28.3008 32.9122 28.4238 32.9108 28.5444 32.9098C28.6957 32.9098 28.7665 32.8317 28.766 32.6833C28.766 32.594 28.7684 32.5047 28.7684 32.4154V24.633C28.7684 24.5597 28.7684 24.4865 28.7684 24.4138C28.7738 24.1307 28.8065 24.0999 29.0994 24.0985H29.1204L29.1228 24.096ZM29.1204 23.5128H29.0964C28.9271 23.5128 28.6445 23.5128 28.4224 23.7261C28.192 23.9457 28.1861 24.2313 28.1827 24.4021C28.1827 24.4616 28.1827 24.5183 28.1827 24.5729V32.3338H28.1544C27.9604 32.3379 27.7752 32.416 27.6368 32.5521C27.4985 32.6882 27.4173 32.8721 27.41 33.066C27.4071 33.1114 27.4052 33.1592 27.4047 33.2154C27.4012 33.4135 27.3964 33.7132 27.6238 33.9451C27.8513 34.1769 28.1441 34.1774 28.3384 34.1779C28.5841 34.1779 28.8298 34.1779 29.0754 34.1779H29.8266C30.0219 34.1779 30.3177 34.1779 30.5446 33.9451C30.7716 33.7123 30.7682 33.4174 30.7658 33.2212C30.7658 33.0567 30.7599 32.7819 30.5466 32.5628C30.4086 32.4278 30.2263 32.3473 30.0336 32.3363V27.3317C30.0336 26.3685 30.0336 25.4056 30.0336 24.4431C30.0336 24.2581 30.0336 23.9779 29.8237 23.7534C29.5972 23.5093 29.2868 23.5093 29.1218 23.5093L29.1204 23.5128Z" fill="#262C45"/>
<path d="M23.9166 21.9064H27.7932C27.8825 21.9064 27.9718 21.9064 28.0607 21.9142C28.0832 21.9137 28.1056 21.9179 28.1264 21.9265C28.1472 21.9351 28.166 21.948 28.1815 21.9643C28.1971 21.9806 28.209 22 28.2166 22.0212C28.2242 22.0425 28.2273 22.065 28.2256 22.0875C28.2295 22.2032 28.1768 22.2744 28.0592 22.2827C27.9865 22.2886 27.9128 22.2901 27.8405 22.2901H16.1557C16.0825 22.2901 16.0093 22.2901 15.9371 22.2827C15.9145 22.2832 15.8922 22.279 15.8714 22.2703C15.8506 22.2616 15.8318 22.2486 15.8163 22.2323C15.8009 22.2159 15.789 22.1965 15.7814 22.1753C15.7739 22.154 15.7709 22.1314 15.7726 22.109C15.7687 21.9938 15.8189 21.921 15.9385 21.9137C16.0274 21.9074 16.1167 21.9064 16.206 21.9064H23.9181H23.9166ZM16.206 21.3207C16.1084 21.3207 16.0059 21.3207 15.8961 21.3295C15.4709 21.3607 15.1727 21.697 15.1868 22.1295C15.1886 22.3187 15.2622 22.5002 15.3927 22.6373C15.5231 22.7744 15.7008 22.8569 15.8897 22.868C15.9903 22.8763 16.085 22.8773 16.1548 22.8773H27.8395C27.9167 22.8773 28.0089 22.8773 28.1061 22.868C28.5351 22.8333 28.8245 22.5043 28.8099 22.068C28.8085 21.8778 28.7343 21.6953 28.6026 21.558C28.4709 21.4208 28.2917 21.3392 28.1017 21.3299C27.9928 21.3221 27.8888 21.3207 27.7922 21.3207H16.206Z" fill="#262C45"/>
<path d="M29.0872 20.3469C29.1628 20.3469 29.2385 20.3493 29.3137 20.3547C29.6153 20.3767 29.7349 20.4987 29.7388 20.8028C29.7456 21.3617 29.7417 21.9206 29.7417 22.479C29.7417 22.7952 29.7461 23.1135 29.7417 23.4269C29.7349 23.7578 29.6441 23.8461 29.3205 23.8515C29.239 23.8515 29.1575 23.8515 29.0764 23.8515C28.9954 23.8515 28.9154 23.8515 28.8353 23.8486C28.5644 23.8418 28.4888 23.7734 28.4848 23.4981C28.4775 23.0281 28.4848 22.5585 28.4848 22.089C28.4848 21.6433 28.4819 21.1977 28.4848 20.7525C28.4848 20.4665 28.5717 20.3752 28.8568 20.3532C28.9349 20.3474 29.0135 20.3445 29.0916 20.3445L29.0872 20.3469ZM29.0916 19.7587C28.9983 19.7587 28.9041 19.7621 28.8119 19.769C28.2198 19.8149 27.9045 20.1531 27.8991 20.7452C27.8962 21.0615 27.8991 21.3797 27.8991 21.6902C27.8991 21.8226 27.8991 21.9549 27.8991 22.087V22.6044C27.8991 22.9002 27.8991 23.2038 27.9025 23.505C27.9025 23.6265 27.9094 23.9501 28.1529 24.1883C28.3614 24.3938 28.621 24.426 28.8236 24.4324C28.9051 24.4324 28.9891 24.4358 29.0798 24.4358C29.1584 24.4358 29.2419 24.4358 29.3346 24.4358C29.4659 24.4358 29.8154 24.4275 30.0668 24.1732C30.2908 23.9486 30.325 23.6616 30.3294 23.4366C30.3338 23.1994 30.3328 22.9617 30.3323 22.7313C30.3323 22.6469 30.3323 22.5619 30.3323 22.4775C30.3323 22.3252 30.3323 22.1734 30.3323 22.0211C30.3323 21.6194 30.3323 21.2045 30.3289 20.794C30.3211 20.1868 29.9682 19.8129 29.36 19.769C29.2712 19.7626 29.1809 19.7597 29.0916 19.7597V19.7587Z" fill="#262C45"/>
<path d="M14.9296 20.3469C15.0028 20.3469 15.0761 20.3493 15.1493 20.3557C15.4397 20.3811 15.5573 20.5021 15.5622 20.7911C15.57 21.2372 15.5622 21.6829 15.5622 22.129C15.5622 22.5263 15.5622 22.9236 15.5622 23.3209C15.5643 23.4025 15.5604 23.484 15.5505 23.565C15.5212 23.7534 15.4343 23.8393 15.2444 23.8481C15.138 23.8536 15.0313 23.8562 14.9242 23.8559C14.8172 23.8556 14.7132 23.853 14.6123 23.8481C14.3898 23.8369 14.3136 23.7554 14.3039 23.5255C14.2946 23.3151 14.2995 23.1042 14.2995 22.8934C14.2995 22.2042 14.2995 21.5149 14.2995 20.8257C14.2995 20.4572 14.3932 20.364 14.7563 20.3523C14.8125 20.3523 14.8686 20.3489 14.9252 20.3489L14.9296 20.3469ZM14.9252 19.7631C14.8696 19.7631 14.81 19.7631 14.7373 19.7665C14.5001 19.7744 14.2004 19.8154 13.9715 20.0477C13.7425 20.28 13.7147 20.5846 13.7137 20.8233C13.7137 21.349 13.7137 21.8825 13.7137 22.3989C13.7137 22.5639 13.7137 22.7284 13.7137 22.8934C13.7137 22.9471 13.7137 23.0007 13.7137 23.0539C13.7137 23.2145 13.7137 23.381 13.7196 23.5508C13.7425 24.0848 14.0579 24.4065 14.584 24.4333C14.6953 24.4387 14.8105 24.4416 14.9257 24.4416C15.0409 24.4416 15.1571 24.4387 15.2737 24.4333C15.7379 24.4114 16.0581 24.1205 16.1304 23.6553C16.1448 23.552 16.1512 23.4477 16.1494 23.3434V23.3244C16.1494 23.0315 16.1494 22.7375 16.1494 22.4423V21.5433C16.1494 21.2919 16.1494 21.0361 16.146 20.7813C16.1357 20.1922 15.7906 19.8241 15.1986 19.7724C15.1151 19.7651 15.0263 19.7612 14.9277 19.7612L14.9252 19.7631Z" fill="#262C45"/>
</svg>
