<svg width="74" height="74" viewBox="0 0 74 74" fill="none" xmlns="http://www.w3.org/2000/svg">
<g filter="url(#filter0_d_670_88)">
<rect width="26" height="26" rx="13" transform="matrix(-1 0 0 1 50 16)" fill="white"/>
<rect x="-0.5" y="0.5" width="25" height="25" rx="12.5" transform="matrix(-1 0 0 1 49 16)" stroke="#262C45"/>
<path d="M37.6575 29.4362C37.3836 28.8054 37.1507 28.2953 36.9589 27.9463C36.8219 27.6778 36.6849 27.4497 36.5617 27.2617C36.4384 27.0738 36.2877 26.8993 36.1096 26.7248C35.9315 26.5503 35.726 26.4161 35.4932 26.3356C35.2603 26.2416 35 26.2013 34.7123 26.2013H32.4247V27.8792C32.4247 27.9597 32.3973 28.0268 32.3425 28.0805C32.2877 28.1342 32.2192 28.1611 32.137 28.1611C32.0548 28.1611 31.9863 28.1342 31.9315 28.0805L29.0685 25.2752C29.0137 25.2215 28.9863 25.1544 28.9863 25.0738C28.9863 24.9933 29.0137 24.9262 29.0685 24.8725L31.9315 22.094C32 22.0403 32.0685 22 32.1507 22C32.2329 22 32.3014 22.0268 32.3562 22.0805C32.3973 22.1342 32.4247 22.2013 32.4247 22.2819V23.9597H34.7123C35.1233 23.9597 35.4932 24.0134 35.8493 24.1074C36.2055 24.2013 36.5206 24.3221 36.7945 24.4698C37.0685 24.6174 37.3425 24.8188 37.6027 25.0738C37.863 25.3289 38.0822 25.5705 38.2603 25.7987C38.4384 26.0268 38.6301 26.3221 38.8356 26.6711C39.0411 27.0201 39.1918 27.3289 39.3151 27.5839C39.4384 27.8523 39.589 28.1745 39.7534 28.5503C40.0274 29.1812 40.2603 29.6913 40.4521 30.0403C40.589 30.3087 40.726 30.5369 40.8493 30.7248C40.9726 30.9127 41.1233 31.0872 41.3014 31.2617C41.4795 31.4362 41.6849 31.5705 41.9178 31.651C42.1507 31.745 42.411 31.7852 42.6986 31.7852H44.7123C44.7945 31.7852 44.863 31.8121 44.9178 31.8658C44.9726 31.9329 45 32 45 32.0805V33.7584C45 33.8389 44.9726 33.906 44.9178 33.9597C44.863 34.0134 44.7945 34.0403 44.7123 34.0403H42.7123C42.3014 34.0403 41.9315 33.9866 41.5753 33.8926C41.2192 33.7987 40.9041 33.6778 40.6301 33.5302C40.3562 33.3825 40.0822 33.1812 39.8219 32.9262C39.5616 32.6711 39.3425 32.4295 39.1644 32.2013C38.9863 31.9731 38.7945 31.6778 38.589 31.3289C38.3836 30.9799 38.2329 30.6711 38.1096 30.4161C37.9863 30.1476 37.8356 29.8255 37.6575 29.4362Z" fill="#262C45"/>
<path d="M44.7123 26.2013H42.7123C42.4521 26.2013 42.2055 26.2416 41.9863 26.3221C41.7671 26.4026 41.5753 26.51 41.4247 26.6308C41.274 26.7516 41.1233 26.9127 40.9726 27.1275C40.8219 27.3422 40.6986 27.5167 40.6164 27.6778C40.5206 27.8389 40.411 28.0536 40.2877 28.3087C39.8356 27.2483 39.4247 26.4563 39.0685 25.9194C40.0274 24.604 41.2466 23.9463 42.726 23.9463H44.7123C44.7945 23.9463 44.863 23.9731 44.9178 24.0268C44.9726 24.0939 45 24.161 45 24.2416V25.9194C45 26 44.9726 26.0671 44.9178 26.1208C44.863 26.1745 44.7945 26.2013 44.7123 26.2013Z" fill="#262C45"/>
<path d="M31.9315 29.9329C32 29.8792 32.0685 29.8389 32.1507 29.8389C32.2329 29.8389 32.3014 29.8658 32.3562 29.9195C32.411 29.9732 32.4384 30.0403 32.4384 30.1208V31.7987H34.7124C34.9726 31.7987 35.2192 31.7584 35.4384 31.6779C35.6576 31.5973 35.8493 31.4899 36 31.3691C36.1507 31.2483 36.3014 31.0872 36.4521 30.8725C36.6028 30.6577 36.7261 30.4832 36.8083 30.3222C36.9041 30.1611 37.0137 29.9463 37.137 29.6913C37.6165 30.7248 38.0137 31.5302 38.3699 32.0671C38.2055 32.2953 38.0411 32.4966 37.8767 32.6711C37.6987 32.8456 37.5343 33.0067 37.3836 33.1409C37.2329 33.2752 37.0548 33.396 36.863 33.4899C36.6713 33.5839 36.4932 33.6779 36.3425 33.745C36.1918 33.8121 36 33.8658 35.7809 33.906C35.548 33.9463 35.3699 33.9732 35.2055 34C35.0548 34.0268 34.8357 34.0403 34.5754 34.0403C34.3014 34.0537 34.0959 34.0537 33.9178 34.0537C33.7535 34.0537 33.5069 34.0537 33.1918 34.0403C32.8767 34.0403 32.6302 34.0403 32.4384 34.0403V35.7181C32.4384 35.7987 32.411 35.8658 32.3562 35.9195C32.3014 35.9732 32.2329 36 32.1507 36C32.0685 36 32 35.9732 31.9452 35.9195L29.0822 33.1141C29.0274 33.0604 29 32.9933 29 32.9128C29 32.8322 29.0274 32.7651 29.0822 32.7114L31.9315 29.9329Z" fill="#262C45"/>
</g>
<defs>
<filter id="filter0_d_670_88" x="0" y="0" width="74" height="74" filterUnits="userSpaceOnUse" color-interpolation-filters="sRGB">
<feFlood flood-opacity="0" result="BackgroundImageFix"/>
<feColorMatrix in="SourceAlpha" type="matrix" values="0 0 0 0 0 0 0 0 0 0 0 0 0 0 0 0 0 0 127 0" result="hardAlpha"/>
<feOffset dy="8"/>
<feGaussianBlur stdDeviation="12"/>
<feColorMatrix type="matrix" values="0 0 0 0 0 0 0 0 0 0 0 0 0 0 0 0 0 0 0.1 0"/>
<feBlend mode="normal" in2="BackgroundImageFix" result="effect1_dropShadow_670_88"/>
<feBlend mode="normal" in="SourceGraphic" in2="effect1_dropShadow_670_88" result="shape"/>
</filter>
</defs>
</svg>
